<svg width="32" height="32" viewBox="0 0 32 32" fill="none" xmlns="http://www.w3.org/2000/svg">
<path d="M26 4V28H6V4H26ZM26 2H6C5.46957 2 4.96086 2.21071 4.58579 2.58579C4.21071 2.96086 4 3.46957 4 4V28C4 28.5304 4.21071 29.0391 4.58579 29.4142C4.96086 29.7893 5.46957 30 6 30H26C26.5304 30 27.0391 29.7893 27.4142 29.4142C27.7893 29.0391 28 28.5304 28 28V4C28 3.46957 27.7893 2.96086 27.4142 2.58579C27.0391 2.21071 26.5304 2 26 2Z" fill="white"/>
<path d="M9 24C9 23.4477 9.44772 23 10 23C10.5523 23 11 23.4477 11 24C11 24.5523 10.5523 25 10 25C9.44772 25 9 24.5523 9 24ZM21 24C21 23.4477 21.4477 23 22 23C22.5523 23 23 23.4477 23 24C23 24.5523 22.5523 25 22 25C21.4477 25 21 24.5523 21 24ZM9 19C9 18.4477 9.44772 18 10 18C10.5523 18 11 18.4477 11 19C11 19.5523 10.5523 20 10 20C9.44772 20 9 19.5523 9 19ZM21 19C21 18.4477 21.4477 18 22 18C22.5523 18 23 18.4477 23 19C23 19.5523 22.5523 20 22 20C21.4477 20 21 19.5523 21 19ZM9 14C9 13.4477 9.44772 13 10 13C10.5523 13 11 13.4477 11 14C11 14.5523 10.5523 15 10 15C9.44772 15 9 14.5523 9 14ZM15 24C15 23.4477 15.4477 23 16 23C16.5523 23 17 23.4477 17 24C17 24.5523 16.5523 25 16 25C15.4477 25 15 24.5523 15 24ZM15 19C15 18.4477 15.4477 18 16 18C16.5523 18 17 18.4477 17 19C17 19.5523 16.5523 20 16 20C15.4477 20 15 19.5523 15 19ZM15 14C15 13.4477 15.4477 13 16 13C16.5523 13 17 13.4477 17 14C17 14.5523 16.5523 15 16 15C15.4477 15 15 14.5523 15 14ZM21 14C21 13.4477 21.4477 13 22 13C22.5523 13 23 13.4477 23 14C23 14.5523 22.5523 15 22 15C21.4477 15 21 14.5523 21 14ZM9 8.5C9 7.67157 9.67157 7 10.5 7H21.5C22.3284 7 23 7.67157 23 8.5C23 9.32843 22.3284 10 21.5 10H10.5C9.67157 10 9 9.32843 9 8.5Z" fill="white"/>
</svg>
