<svg id="Слой_1" data-name="Слой 1" xmlns="http://www.w3.org/2000/svg" viewBox="0 0 399.97 95.19"><defs><style>.cls-1{fill:#24a544;}.cls-2{fill:#054428;}</style></defs><path class="cls-1" d="M64,1.81c2.44,1.85,16.57,17.53,19.52,31.24,3.68,17.08-5.74,29.62-7.66,32.32-2.25-2-4.85-3.81-7.1-5.84q.14,14.85.28,29.71l28.1-6.38-6.86-5.62c3.16-4,11.17-14.92,10.57-29.81C100,27,87.72,10.2,64,1.81Z"/><path class="cls-1" d="M52.33,17.66C50.92,7.33,49,1.45,47.59,0c-1.37,1.45-3.32,7.33-4.73,17.66,1.56-.08,3.13-.12,4.73-.12S50.77,17.58,52.33,17.66Z"/><path class="cls-1" d="M47.59,36.08q3.18,0,6.29.07c-.2-5-.53-9.48-.94-13.44-1.76-.11-3.54-.17-5.35-.17s-3.58.06-5.34.17c-.41,4-.74,8.44-1,13.44C43.38,36.1,45.47,36.08,47.59,36.08Z"/><path class="cls-1" d="M37.78,18c.29-2.27.62-4.43,1-6.45a61.13,61.13,0,0,1,2.57-10.2C35.7,4.27,30.78,10.91,27.39,19.75A86.62,86.62,0,0,1,37.78,18Z"/><path class="cls-1" d="M22.71,42.25c-.11,1.76-.17,3.54-.17,5.34s.06,3.59.17,5.35c4,.41,8.44.74,13.44.94q-.07-3.1-.07-6.29c0-2.12,0-4.21.07-6.29C31.16,41.51,26.67,41.84,22.71,42.25Z"/><path class="cls-1" d="M37.2,72c-.41-4.13-.71-8.54-.9-13.14-4.59-.19-9-.49-13.13-.89A78.54,78.54,0,0,0,25.49,69.7,78,78,0,0,0,37.2,72Z"/><path class="cls-1" d="M41.15,41.15c0,2.07-.07,4.21-.07,6.44s0,4.37.07,6.45c2.07,0,4.21.07,6.44.07S52,54.08,54,54c0-2.08.07-4.22.07-6.45s0-4.37-.07-6.44c-2.08,0-4.22-.07-6.45-.07S43.22,41.1,41.15,41.15Z"/><path class="cls-1" d="M58.88,36.3c4.6.19,9,.49,13.14.9A78,78,0,0,0,69.7,25.49,78.54,78.54,0,0,0,58,23.17C58.39,27.29,58.69,31.71,58.88,36.3Z"/><path class="cls-1" d="M72.48,52.93c.11-1.75.17-3.53.17-5.34s-.06-3.58-.17-5.34c-4-.41-8.45-.74-13.44-1,0,2.08.07,4.17.07,6.29s0,4.22-.07,6.29C64,53.68,68.51,53.35,72.48,52.93Z"/><path class="cls-1" d="M61.43,71.52V58.76c-.84,0-1.69.09-2.55.12-.19,4.6-.49,9-.89,13.14C59.15,71.87,60.3,71.7,61.43,71.52Z"/><path class="cls-1" d="M57.41,18A87,87,0,0,1,67.8,19.75C64.4,10.91,59.49,4.27,53.85,1.39a60,60,0,0,1,2.58,10.2C56.79,13.61,57.12,15.77,57.41,18Z"/><path class="cls-1" d="M19.75,67.8A87,87,0,0,1,18,57.41c-2.27-.29-4.43-.62-6.45-1a60,60,0,0,1-10.2-2.58C4.27,59.49,10.91,64.4,19.75,67.8Z"/><path class="cls-1" d="M25.49,25.49A78,78,0,0,0,23.17,37.2c4.12-.41,8.54-.71,13.13-.9.19-4.59.49-9,.9-13.13A78,78,0,0,0,25.49,25.49Z"/><path class="cls-1" d="M47.59,59.11c-2.12,0-4.21,0-6.29-.07.21,5,.54,9.47,1,13.44,1.76.11,3.54.17,5.34.17s3.59-.06,5.35-.17c.41-4,.74-8.45.94-13.44C51.81,59.08,49.71,59.11,47.59,59.11Z"/><path class="cls-1" d="M42.86,77.53c1.41,10.32,3.36,16.21,4.73,17.66,1.37-1.45,3.33-7.34,4.74-17.66-1.56.07-3.14.12-4.74.12S44.42,77.6,42.86,77.53Z"/><path class="cls-1" d="M61.43,76.63c-1.32.19-2.66.37-4,.51-.29,2.27-.62,4.43-1,6.45A59.94,59.94,0,0,1,53.85,93.8a23.29,23.29,0,0,0,7.58-6.66Z"/><path class="cls-1" d="M37.78,77.14a84.69,84.69,0,0,1-10.39-1.7c3.39,8.83,8.31,15.47,13.94,18.36a61,61,0,0,1-2.57-10.21C38.4,81.57,38.07,79.41,37.78,77.14Z"/><path class="cls-1" d="M2.52,63.45A48,48,0,0,0,31.74,92.66C27.42,88,23.87,81.56,21.39,73.8,13.63,71.32,7.14,67.76,2.52,63.45Z"/><path class="cls-1" d="M18,37.78a86.62,86.62,0,0,1,1.71-10.39C10.91,30.78,4.27,35.7,1.39,41.33a61.13,61.13,0,0,1,10.2-2.57C13.61,38.4,15.77,38.07,18,37.78Z"/><path class="cls-1" d="M31.74,2.52A48,48,0,0,0,2.52,31.74c4.62-4.32,11.11-7.87,18.87-10.35C23.87,13.63,27.42,7.14,31.74,2.52Z"/><path class="cls-1" d="M17.54,47.59q0-2.4.12-4.74C7.33,44.27,1.45,46.22,0,47.59,1.45,49,7.33,50.92,17.66,52.33Q17.54,50,17.54,47.59Z"/><path class="cls-2" d="M119,22.68V80.77h47.81v-6.6H131.4V23S119,22.1,119,22.68Z"/><rect class="cls-2" x="174.96" y="22.71" width="11.43" height="57.82"/><polygon class="cls-2" points="266.77 80.77 266.77 22.48 282.77 22.48 314.64 70.1 314.64 22.95 326.32 22.95 326.32 80.77 310.7 80.77 278.83 33.53 278.83 80.77 266.77 80.77"/><path class="cls-2" d="M387.53,80.77H400L376.23,22.48H357.18l-24,58.29h12.06l6.29-14.86h29.82ZM354,60.07l12.58-29.71,12.35,29.71Z"/><path class="cls-2" d="M250,34.64c-2.58-2.14-9.67-7.4-19.56-7.36-3.25,0-10.55,0-15.49,5.2a22.24,22.24,0,0,0-5.91,11.75,35.61,35.61,0,0,0,.83,16.57c.7,2.58,3.24,11.94,10.67,14.86a20.05,20.05,0,0,0,8.94,1.83c4.19-.08,6.18-.34,9-1.32a15.64,15.64,0,0,0,6.22-4.2V56.18H234.13V51.75h22.23V73.5a48.75,48.75,0,0,1-27.81,8.89c-5.53,0-19-.75-26.67-11.56-3.69-5.21-4.77-11.54-5.08-13.46a35,35,0,0,1,0-11.43c.49-2.8,2.14-12.27,10.28-18.92s17.5-6.27,22.73-6.09a38.55,38.55,0,0,1,16.64,4.31,35.49,35.49,0,0,1,7.11,5.08Z"/></svg>