<svg width="118" height="97" viewBox="0 0 118 97" fill="none" xmlns="http://www.w3.org/2000/svg">
<path fill-rule="evenodd" clip-rule="evenodd" d="M113.72 28.2106C111.859 27.7128 110.12 28.6904 109.822 30.4702C109.465 32.6074 108.374 37.518 107.388 41.839C106.892 44.0116 106.417 46.0535 106.067 47.552C105.892 48.3014 105.748 48.915 105.648 49.3415C105.632 49.4093 105.617 49.4724 105.603 49.5305C106.162 51.0854 106.057 52.9118 104.964 54.6373C103.544 56.8774 101.662 59.5343 99.7806 62.1702C99.5833 62.4464 99.3861 62.7225 99.1893 62.9979C97.4959 65.3679 95.8356 67.6915 94.5002 69.7053C94.0343 70.408 93.0851 70.6011 92.3802 70.1366C91.6753 69.6721 91.4816 68.7259 91.9475 68.0232C93.3144 65.9619 95.0079 63.592 96.6946 61.2315C96.8925 60.9545 97.0903 60.6777 97.2875 60.4015C99.1778 57.7537 101.01 55.1654 102.376 53.0086C103.019 51.9947 102.973 51.0548 102.619 50.3109C102.241 49.5161 101.5 48.9255 100.727 48.7391C100.025 48.5699 99.2482 48.7138 98.5538 49.5049C97.3177 50.9133 96.4127 52.2318 95.5323 53.5144C95.3068 53.8429 95.083 54.1689 94.8556 54.4936C93.7615 56.056 92.5889 57.5758 90.8449 58.7794C89.9384 59.405 88.6155 59.9963 87.1927 60.5914C86.6621 60.8134 86.1111 61.0383 85.5394 61.2717C84.5049 61.694 83.4023 62.1441 82.2291 62.6546C78.6166 64.2265 74.6768 66.2313 71.4958 69.0742C69.1022 71.2134 67.8124 74.0211 67.1898 76.7363C66.7219 78.7765 66.6449 80.7067 66.7361 82.149H87.7389L103.2 74.0404C103.83 73.5904 104.804 72.7719 105.682 71.7672C106.616 70.6978 107.307 69.5705 107.509 68.5651L107.524 68.4924C108.154 65.3496 113.555 38.4329 114.708 32.9169C114.95 31.7577 115.026 30.5449 114.822 29.619C114.628 28.7398 114.26 28.3552 113.72 28.2106ZM103.169 46.5096C102.639 46.1732 102.057 45.9215 101.446 45.7742C99.6741 45.3472 97.7206 45.8219 96.2509 47.4963C94.8829 49.0549 93.8542 50.5551 92.9661 51.8501C92.7524 52.1618 92.5468 52.4616 92.3466 52.7475C91.2935 54.2512 90.3769 55.3924 89.1031 56.2714C88.5007 56.6872 87.4732 57.1661 86.0087 57.7786C85.5249 57.981 84.9959 58.1971 84.4347 58.4262C83.3764 58.8585 82.2039 59.3373 81.005 59.859C77.3052 61.4689 73.0041 63.6294 69.4531 66.803C66.4611 69.477 64.9266 72.9172 64.2067 76.0566C63.4893 79.1853 63.5559 82.1167 63.8583 83.9249C63.9812 84.6603 64.6195 85.1993 65.3674 85.1993H88.1169C88.3651 85.1993 88.6096 85.1391 88.8293 85.0239L104.714 76.6931C104.771 76.6632 104.826 76.6297 104.879 76.5929C105.69 76.0269 106.897 75.0197 107.989 73.7709C109.06 72.5455 110.154 70.9347 110.51 69.1634L110.522 69.0989C111.147 65.9862 116.553 39.0445 117.703 33.539C117.989 32.1727 118.145 30.4818 117.811 28.9647C117.466 27.4009 116.526 25.803 114.513 25.2645C111.266 24.396 107.456 26.0651 106.804 29.9688C106.465 31.9968 105.399 36.8052 104.404 41.1619C103.947 43.1633 103.508 45.0542 103.169 46.5096Z" fill="#24A544"/>
<path fill-rule="evenodd" clip-rule="evenodd" d="M60.5879 83.8836C60.5879 83.0412 61.2729 82.3584 62.1179 82.3584H89.0458C89.8908 82.3584 90.5758 83.0412 90.5758 83.8836V95.4748C90.5758 96.3171 89.8908 97 89.0458 97H62.1179C61.2729 97 60.5879 96.3171 60.5879 95.4748V83.8836ZM63.6479 85.4087V93.9497H87.5158V85.4087H63.6479Z" fill="#24A544"/>
<path fill-rule="evenodd" clip-rule="evenodd" d="M4.28034 28.2106C6.14099 27.7128 7.88042 28.6904 8.17801 30.4702C8.53533 32.6074 9.62551 37.518 10.6123 41.839C11.1084 44.0116 11.5827 46.0535 11.9329 47.552C12.108 48.3014 12.2521 48.915 12.3525 49.3415C12.3684 49.4093 12.3833 49.4724 12.397 49.5305C11.8383 51.0854 11.9431 52.9118 13.0363 54.6373C14.4555 56.8774 16.3375 59.5343 18.2194 62.1702C18.4167 62.4464 18.6139 62.7225 18.8107 62.9979C20.5041 65.3679 22.1644 67.6915 23.4998 69.7053C23.9657 70.408 24.9149 70.6011 25.6198 70.1366C26.3247 69.6721 26.5184 68.7259 26.0525 68.0232C24.6856 65.9619 22.9921 63.592 21.3054 61.2315C21.1075 60.9545 20.9097 60.6777 20.7125 60.4015C18.8222 57.7537 16.99 55.1654 15.6235 53.0086C14.9813 51.9947 15.0274 51.0548 15.3812 50.3109C15.7592 49.5161 16.5001 48.9255 17.2732 48.7391C17.9752 48.5699 18.7518 48.7138 19.4462 49.5049C20.6823 50.9133 21.5873 52.2318 22.4677 53.5144C22.6932 53.8429 22.917 54.1689 23.1444 54.4936C24.2385 56.056 25.4111 57.5758 27.1551 58.7794C28.0616 59.405 29.3845 59.9963 30.8073 60.5914C31.3379 60.8134 31.8889 61.0383 32.4606 61.2717C33.4951 61.694 34.5977 62.1441 35.7709 62.6546C39.3834 64.2265 43.3232 66.2313 46.5042 69.0742C48.8978 71.2134 50.1876 74.0211 50.8102 76.7363C51.2781 78.7765 51.3551 80.7067 51.2639 82.149H30.2611L14.8004 74.0404C14.1702 73.5904 13.1963 72.7719 12.3183 71.7672C11.3838 70.6978 10.6928 69.5705 10.4911 68.5651L10.4765 68.4924C9.84587 65.3496 4.44519 38.4329 3.29235 32.9169C3.05007 31.7577 2.97403 30.5449 3.17801 29.619C3.3717 28.7398 3.73969 28.3552 4.28034 28.2106ZM14.8312 46.5096C15.3614 46.1732 15.9433 45.9215 16.5541 45.7742C18.3259 45.3472 20.2794 45.8219 21.7491 47.4963C23.1171 49.0549 24.1458 50.5551 25.0339 51.8501C25.2476 52.1618 25.4532 52.4616 25.6534 52.7475C26.7065 54.2512 27.6231 55.3924 28.8969 56.2714C29.4993 56.6872 30.5268 57.1661 31.9913 57.7786C32.4751 57.981 33.0041 58.1971 33.5653 58.4262C34.6236 58.8585 35.7961 59.3373 36.995 59.859C40.6948 61.4689 44.9959 63.6294 48.5469 66.803C51.5389 69.477 53.0734 72.9172 53.7933 76.0566C54.5107 79.1853 54.4441 82.1167 54.1417 83.9249C54.0188 84.6603 53.3805 85.1993 52.6326 85.1993H29.8831C29.6349 85.1993 29.3904 85.1391 29.1707 85.0239L13.2863 76.6931C13.2293 76.6632 13.1742 76.6297 13.1214 76.5929C12.3102 76.0269 11.1025 75.0197 10.0111 73.7709C8.94023 72.5455 7.8459 70.9347 7.49049 69.1634L7.47756 69.0989C6.853 65.9862 1.44732 39.0445 0.29668 33.539C0.0111084 32.1727 -0.144989 30.4818 0.189236 28.9647C0.533749 27.4009 1.4743 25.803 3.48716 25.2645C6.73353 24.396 10.5437 26.0651 11.1964 29.9688C11.5354 31.9968 12.601 36.8052 13.5959 41.1619C14.053 43.1633 14.4916 45.0542 14.8312 46.5096Z" fill="#24A544"/>
<path fill-rule="evenodd" clip-rule="evenodd" d="M56.9141 83.8836C56.9141 83.0412 56.2291 82.3584 55.3841 82.3584H28.4561C27.6111 82.3584 26.9261 83.0412 26.9261 83.8836V95.4748C26.9261 96.3171 27.6111 97 28.4561 97H55.3841C56.2291 97 56.9141 96.3171 56.9141 95.4748V83.8836ZM53.8541 85.4087V93.9497H29.9861V85.4087H53.8541Z" fill="#24A544"/>
<path fill-rule="evenodd" clip-rule="evenodd" d="M58.2966 0.226764C58.7887 -0.0755881 59.4098 -0.0755881 59.902 0.226764L79.8658 12.4912C80.3178 12.7689 80.5931 13.2603 80.5931 13.7896V36.2358C80.5931 36.7744 80.3082 37.273 79.8435 37.5477L59.8797 49.3493C59.3985 49.6337 58.8 49.6337 58.3189 49.3493L38.355 37.5477C37.8904 37.273 37.6055 36.7744 37.6055 36.2358V13.7896C37.6055 13.2603 37.8807 12.7689 38.3328 12.4912L58.2966 0.226764ZM40.6655 16.4672L57.5693 26.4599V45.3598L40.6655 35.3671V16.4672ZM60.6293 45.3598L77.5331 35.3671V16.4672L60.6293 26.4599V45.3598ZM59.0993 23.818L76.106 13.7645L69.0736 9.44425L52.0954 19.6777L59.0993 23.818ZM49.1097 17.9127L66.1448 7.64498L59.0993 3.3167L42.0925 13.7645L49.1097 17.9127Z" fill="#24A544"/>
</svg>
