<svg width="119" height="100" viewBox="0 0 119 100" fill="none" xmlns="http://www.w3.org/2000/svg">
<path fill-rule="evenodd" clip-rule="evenodd" d="M0 35.9992C0 31.7734 3.47053 28.3477 7.75165 28.3477H76.8893C81.1704 28.3477 84.641 31.7734 84.641 35.9992V77.415C84.641 81.6409 81.1704 85.0666 76.8893 85.0666H19.2476C18.014 85.0666 16.831 85.5503 15.9588 86.4113L2.64658 99.5516C2.20319 99.9893 1.53636 100.12 0.957045 99.8833C0.377726 99.6465 0 99.0885 0 98.4695V35.9992ZM7.75165 31.4083C5.18298 31.4083 3.10066 33.4637 3.10066 35.9992V94.775L13.7663 84.2471C15.22 82.8121 17.1917 82.006 19.2476 82.006H76.8893C79.458 82.006 81.5403 79.9505 81.5403 77.415V35.9992C81.5403 33.4637 79.458 31.4083 76.8893 31.4083H7.75165Z" fill="#24A544"/>
<path fill-rule="evenodd" clip-rule="evenodd" d="M111.248 0C115.529 0 118.999 3.42573 118.999 7.65157V70.1218C118.999 70.7408 118.622 71.2988 118.042 71.5357C117.463 71.7725 116.796 71.6416 116.353 71.2039L103.041 58.0636C102.168 57.2026 100.985 56.7189 99.7518 56.7189H84.339V53.6583H99.7518C101.808 53.6583 103.779 54.4645 105.233 55.8994L115.899 66.4273V7.65157C115.899 5.11606 113.816 3.06063 111.248 3.06063H42.1101C39.5414 3.06063 37.4591 5.11606 37.4591 7.65157V30.8298H34.3584V7.65157C34.3584 3.42572 37.8289 0 42.1101 0H111.248Z" fill="#24A544"/>
<path fill-rule="evenodd" clip-rule="evenodd" d="M15.8984 46.583C15.8984 45.7379 16.5925 45.0527 17.4488 45.0527H66.9371C67.7933 45.0527 68.4874 45.7379 68.4874 46.583C68.4874 47.4282 67.7933 48.1134 66.9371 48.1134H17.4488C16.5925 48.1134 15.8984 47.4282 15.8984 46.583Z" fill="#24A544"/>
<path fill-rule="evenodd" clip-rule="evenodd" d="M15.8984 56.7071C15.8984 55.8619 16.5925 55.1768 17.4488 55.1768H66.9371C67.7933 55.1768 68.4874 55.8619 68.4874 56.7071C68.4874 57.5522 67.7933 58.2374 66.9371 58.2374H17.4488C16.5925 58.2374 15.8984 57.5522 15.8984 56.7071Z" fill="#24A544"/>
<path fill-rule="evenodd" clip-rule="evenodd" d="M15.8984 66.8316C15.8984 65.9864 16.5925 65.3013 17.4488 65.3013H66.9371C67.7933 65.3013 68.4874 65.9864 68.4874 66.8316C68.4874 67.6768 67.7933 68.3619 66.9371 68.3619H17.4488C16.5925 68.3619 15.8984 67.6768 15.8984 66.8316Z" fill="#24A544"/>
<path fill-rule="evenodd" clip-rule="evenodd" d="M50.2568 20.7662C50.2568 19.921 50.9509 19.2358 51.8072 19.2358H101.295C102.152 19.2358 102.846 19.921 102.846 20.7662C102.846 21.6113 102.152 22.2965 101.295 22.2965H51.8072C50.9509 22.2965 50.2568 21.6113 50.2568 20.7662Z" fill="#24A544"/>
<path fill-rule="evenodd" clip-rule="evenodd" d="M89.7451 30.8907C89.7451 30.0455 90.4392 29.3604 91.2954 29.3604H101.039C101.895 29.3604 102.59 30.0455 102.59 30.8907C102.59 31.7358 101.895 32.421 101.039 32.421H91.2954C90.4392 32.421 89.7451 31.7358 89.7451 30.8907Z" fill="#24A544"/>
<path fill-rule="evenodd" clip-rule="evenodd" d="M89.7451 41.0152C89.7451 40.17 90.4392 39.4849 91.2954 39.4849H101.039C101.895 39.4849 102.59 40.17 102.59 41.0152C102.59 41.8603 101.895 42.5455 101.039 42.5455H91.2954C90.4392 42.5455 89.7451 41.8603 89.7451 41.0152Z" fill="#24A544"/>
</svg>
