<svg width="90" height="101" viewBox="0 0 90 101" fill="none" xmlns="http://www.w3.org/2000/svg">
<path fill-rule="evenodd" clip-rule="evenodd" d="M76.036 4.03483C70.5431 4.03483 66.0902 8.50654 66.0902 14.0227C66.0902 19.5388 70.5431 24.0105 76.036 24.0105C81.529 24.0105 85.9819 19.5388 85.9819 14.0227C85.9819 8.50654 81.529 4.03483 76.036 4.03483ZM62.0723 14.0227C62.0723 6.27816 68.3241 0 76.036 0C83.748 0 89.9998 6.27816 89.9998 14.0227C89.9998 21.7672 83.748 28.0453 76.036 28.0453C68.3241 28.0453 62.0723 21.7672 62.0723 14.0227Z" fill="#24A544"/>
<path fill-rule="evenodd" clip-rule="evenodd" d="M13.9638 76.9894C8.47081 76.9894 4.01789 81.4611 4.01789 86.9773C4.01789 92.4934 8.47081 96.9651 13.9638 96.9651C19.4567 96.9651 23.9097 92.4934 23.9097 86.9773C23.9097 81.4611 19.4567 76.9894 13.9638 76.9894ZM0 86.9773C0 79.2328 6.25179 72.9546 13.9638 72.9546C21.6757 72.9546 27.9275 79.2328 27.9275 86.9773C27.9275 94.7218 21.6757 101 13.9638 101C6.25179 101 0 94.7218 0 86.9773Z" fill="#24A544"/>
<path fill-rule="evenodd" clip-rule="evenodd" d="M24.9983 12.0049H49.5977C50.7072 12.0049 51.6066 12.9081 51.6066 14.0223C51.6066 15.1365 50.7072 16.0397 49.5977 16.0397H25.0034L24.9866 16.04C24.9676 16.0403 24.9338 16.0411 24.8863 16.0428C24.7912 16.0463 24.6415 16.0538 24.445 16.0693C24.0513 16.1005 23.4742 16.1641 22.7755 16.2932C21.3697 16.553 19.521 17.0691 17.6928 18.0827C15.8761 19.0899 14.0909 20.5808 12.7516 22.8082C11.4145 25.0321 10.4544 28.1024 10.4544 32.3765C10.4544 36.6505 11.4145 39.7208 12.7516 41.9448C14.0909 44.1722 15.8761 45.663 17.6928 46.6703C19.521 47.6838 21.3697 48.2 22.7755 48.4598C23.4742 48.5889 24.0513 48.6525 24.445 48.6836C24.6415 48.6992 24.7912 48.7066 24.8863 48.7101C24.9338 48.7119 24.9676 48.7127 24.9866 48.713L25.0003 48.7132L25.0019 48.7133L25.0035 48.7132H70.0588C71.1683 48.7132 72.0677 49.6165 72.0677 50.7307C72.0677 51.8449 71.1683 52.7481 70.0588 52.7481H24.9983V50.7307C24.9983 52.7481 24.9972 52.7481 24.9959 52.7481H24.9932L24.9866 52.7481L24.9687 52.7479C24.9548 52.7478 24.9369 52.7476 24.915 52.7472C24.8714 52.7464 24.8122 52.745 24.7385 52.7422C24.5911 52.7368 24.3852 52.7263 24.1291 52.706C23.6176 52.6655 22.9015 52.5857 22.0483 52.428C20.3504 52.1142 18.0609 51.4832 15.7509 50.2025C13.4295 48.9155 11.0765 46.9649 9.31206 44.0302C7.54551 41.092 6.43652 37.2795 6.43652 32.3765C6.43652 27.4734 7.54551 23.6609 9.31206 20.7227C11.0765 17.7881 13.4295 15.8375 15.7509 14.5504C18.0609 13.2697 20.3504 12.6388 22.0483 12.325C22.9015 12.1673 23.6176 12.0875 24.1291 12.047C24.3852 12.0267 24.5911 12.0162 24.7385 12.0107C24.8122 12.008 24.8714 12.0065 24.915 12.0058C24.9369 12.0054 24.9548 12.0052 24.9687 12.005L24.9866 12.0049L24.9932 12.0049L24.9959 12.0049C24.9972 12.0049 24.9983 12.0049 24.9983 14.0223V12.0049Z" fill="#24A544"/>
<path fill-rule="evenodd" clip-rule="evenodd" d="M69.3699 89.2256L44.7705 89.2256C43.661 89.2256 42.7616 88.3224 42.7616 87.2082C42.7616 86.094 43.661 85.1907 44.7705 85.1907L69.3648 85.1907L69.3816 85.1905C69.4006 85.1902 69.4344 85.1894 69.4819 85.1876C69.5769 85.1841 69.7267 85.1767 69.9232 85.1611C70.3169 85.13 70.894 85.0664 71.5926 84.9373C72.9984 84.6775 74.8471 84.1613 76.6753 83.1478C78.4921 82.1405 80.2773 80.6497 81.6165 78.4223C82.9536 76.1983 83.9138 73.128 83.9138 68.854C83.9138 64.5795 82.9535 61.5269 81.6204 59.3282C80.2855 57.1265 78.5062 55.6653 76.6942 54.686C74.8701 53.7001 73.0243 53.2103 71.6193 52.9702C70.9212 52.8509 70.3444 52.7954 69.9508 52.7698C69.7544 52.7569 69.6048 52.7516 69.5097 52.7494C69.4622 52.7484 69.4285 52.748 69.4095 52.748L69.3922 52.748L69.3958 52.7479C68.2873 52.7623 67.3765 51.8721 67.3611 50.7587C67.3457 49.6446 68.2326 48.7289 69.342 48.7134L69.3699 50.7307C69.342 48.7134 69.3431 48.7134 69.3443 48.7134L69.3471 48.7134L69.3537 48.7133L69.3716 48.7132C69.3855 48.7131 69.4034 48.7131 69.4252 48.7132C69.4688 48.7133 69.528 48.714 69.6018 48.7157C69.7492 48.7191 69.9552 48.7267 70.2114 48.7434C70.7231 48.7768 71.4395 48.8467 72.2932 48.9925C73.9918 49.2828 76.2843 49.8823 78.5984 51.133C80.9245 52.3902 83.2835 54.3127 85.0522 57.2299C86.8228 60.15 87.9316 63.9513 87.9316 68.854C87.9316 73.757 86.8227 77.5695 85.0561 80.5077C83.2917 83.4424 80.9387 85.393 78.6172 86.68C76.3072 87.9607 74.0177 88.5917 72.3198 88.9055C71.4667 89.0632 70.7506 89.143 70.2391 89.1835C69.9829 89.2038 69.777 89.2143 69.6296 89.2197C69.5559 89.2225 69.4967 89.2239 69.4531 89.2247C69.4313 89.2251 69.4134 89.2253 69.3995 89.2254L69.3816 89.2256L69.375 89.2256L69.3722 89.2256C69.371 89.2256 69.3699 89.2256 69.3699 87.2082L69.3699 89.2256Z" fill="#24A544"/>
</svg>
