<svg width="206" height="206" viewBox="0 0 206 206" fill="none" xmlns="http://www.w3.org/2000/svg">
<path d="M74.4645 81.5355C76.4171 83.4882 79.5829 83.4882 81.5355 81.5355C83.4882 79.5829 83.4882 76.4171 81.5355 74.4645L74.4645 81.5355ZM5 0C2.23858 0 0 2.23858 0 5V50C0 52.7614 2.23858 55 5 55C7.76142 55 10 52.7614 10 50V10H50C52.7614 10 55 7.76142 55 5C55 2.23858 52.7614 0 50 0H5ZM81.5355 74.4645L8.53553 1.46447L1.46447 8.53553L74.4645 81.5355L81.5355 74.4645Z" fill="#24A544"/>
<path d="M81.5355 131.536C83.4881 129.583 83.4881 126.417 81.5355 124.464C79.5829 122.512 76.4171 122.512 74.4645 124.464L81.5355 131.536ZM0 201C1.20706e-07 203.761 2.23858 206 5 206L50 206C52.7614 206 55 203.761 55 201C55 198.239 52.7614 196 50 196L10 196L10 156C10 153.239 7.76142 151 5 151C2.23857 151 -2.08772e-06 153.239 -1.96701e-06 156L0 201ZM74.4645 124.464L1.46447 197.464L8.53553 204.536L81.5355 131.536L74.4645 124.464Z" fill="#24A544"/>
<path d="M124.464 74.4645C122.512 76.4171 122.512 79.5829 124.464 81.5355C126.417 83.4881 129.583 83.4881 131.536 81.5355L124.464 74.4645ZM206 5C206 2.23858 203.761 1.20706e-07 201 0L156 -1.96701e-06C153.239 -2.08772e-06 151 2.23857 151 5C151 7.76142 153.239 10 156 10L196 10L196 50C196 52.7614 198.239 55 201 55C203.761 55 206 52.7614 206 50L206 5ZM131.536 81.5355L204.536 8.53553L197.464 1.46447L124.464 74.4645L131.536 81.5355Z" fill="#24A544"/>
<path d="M131.536 124.464C129.583 122.512 126.417 122.512 124.464 124.464C122.512 126.417 122.512 129.583 124.464 131.536L131.536 124.464ZM201 206C203.761 206 206 203.761 206 201L206 156C206 153.239 203.761 151 201 151C198.239 151 196 153.239 196 156L196 196L156 196C153.239 196 151 198.239 151 201C151 203.761 153.239 206 156 206L201 206ZM124.464 131.536L197.464 204.536L204.536 197.464L131.536 124.464L124.464 131.536Z" fill="#24A544"/>
</svg>
