<svg width="27" height="27" viewBox="0 0 27 27" fill="none" xmlns="http://www.w3.org/2000/svg">
<circle cx="13.5" cy="13.5" r="13.5" fill="#FF8A00"/>
<path d="M17.4551 20.0625C16.8833 20.0625 16.0799 19.8556 14.877 19.1836C13.4142 18.3633 12.2828 17.6059 10.8279 16.1549C9.42515 14.753 8.74253 13.8454 7.78716 12.1069C6.70787 10.144 6.89185 9.11511 7.09751 8.67536C7.34244 8.14978 7.70396 7.83542 8.17124 7.52341C8.43666 7.34951 8.71753 7.20045 9.01031 7.0781C9.0396 7.0655 9.06685 7.05349 9.09117 7.04265C9.23619 6.97732 9.45591 6.87859 9.73423 6.98405C9.91997 7.05378 10.0858 7.19646 10.3454 7.4528C10.8777 7.9778 11.6051 9.14704 11.8735 9.72126C12.0537 10.1083 12.1729 10.3637 12.1732 10.6503C12.1732 10.9857 12.0044 11.2444 11.7997 11.5236C11.7613 11.576 11.7232 11.6261 11.6863 11.6748C11.4633 11.9677 11.4144 12.0524 11.4466 12.2036C11.512 12.5074 11.9992 13.4118 12.7999 14.2107C13.6005 15.0096 14.4789 15.4661 14.7838 15.5311C14.9415 15.5648 15.0279 15.5138 15.3302 15.283C15.3736 15.2499 15.4181 15.2156 15.4647 15.1813C15.777 14.949 16.0237 14.7846 16.3512 14.7846H16.353C16.638 14.7846 16.8821 14.9083 17.2864 15.1122C17.8137 15.3782 19.0181 16.0963 19.5463 16.6292C19.8033 16.8882 19.9465 17.0534 20.0166 17.2388C20.122 17.518 20.0227 17.7369 19.958 17.8834C19.9471 17.9077 19.9351 17.9343 19.9225 17.9639C19.7992 18.2562 19.6492 18.5365 19.4746 18.8012C19.1631 19.2671 18.8476 19.6277 18.3209 19.8729C18.0504 20.0009 17.7543 20.0657 17.4551 20.0625Z" fill="white"/>
</svg>
