<svg width="103" height="134" viewBox="0 0 103 134" fill="none" xmlns="http://www.w3.org/2000/svg">
<path fill-rule="evenodd" clip-rule="evenodd" d="M27.3477 2.30089C27.3477 1.03015 28.3849 0 29.6643 0H72.8681C74.1475 0 75.1847 1.03015 75.1847 2.30089V23.7559C75.1847 25.0266 74.1475 26.0568 72.8681 26.0568H29.6643C28.3849 26.0568 27.3477 25.0266 27.3477 23.7559V2.30089ZM31.981 4.60179V21.455H70.5514V4.60179H31.981Z" fill="white"/>
<path fill-rule="evenodd" clip-rule="evenodd" d="M20.3789 48.671C20.3789 47.4003 21.4161 46.3701 22.6956 46.3701H37.3291C38.6085 46.3701 39.6457 47.4003 39.6457 48.671V63.205C39.6457 64.4758 38.6085 65.5059 37.3291 65.5059H22.6956C21.4161 65.5059 20.3789 64.4758 20.3789 63.205V48.671ZM25.0122 50.9719V60.9041H35.0124V50.9719H25.0122Z" fill="white"/>
<path fill-rule="evenodd" clip-rule="evenodd" d="M20.3789 80.5084C20.3789 79.2377 21.4161 78.2075 22.6956 78.2075H37.3291C38.6085 78.2075 39.6457 79.2377 39.6457 80.5084V95.0424C39.6457 96.3132 38.6085 97.3433 37.3291 97.3433H22.6956C21.4161 97.3433 20.3789 96.3132 20.3789 95.0424V80.5084ZM25.0122 82.8093V92.7415H35.0124V82.8093H25.0122Z" fill="white"/>
<path fill-rule="evenodd" clip-rule="evenodd" d="M48.9512 56.2853C48.9512 55.0145 49.9884 53.9844 51.2678 53.9844L80.5349 53.9844C81.8144 53.9844 82.8516 55.0145 82.8516 56.2853C82.8516 57.556 81.8144 58.5862 80.5349 58.5862L51.2678 58.5862C49.9884 58.5862 48.9512 57.556 48.9512 56.2853Z" fill="white"/>
<path fill-rule="evenodd" clip-rule="evenodd" d="M48.9512 88.1202C48.9512 86.8495 49.9884 85.8193 51.2678 85.8193L80.5349 85.8193C81.8144 85.8193 82.8516 86.8495 82.8516 88.1202C82.8516 89.391 81.8144 90.4211 80.5349 90.4211L51.2678 90.4211C49.9884 90.4211 48.9512 89.391 48.9512 88.1202Z" fill="white"/>
<path fill-rule="evenodd" clip-rule="evenodd" d="M29.6155 10.2236H2.31665C1.0372 10.2236 0 11.2538 0 12.5245V131.261C0 132.532 1.0372 133.562 2.31665 133.562H100.216C101.495 133.562 102.533 132.532 102.533 131.261V12.5245C102.533 11.2538 101.495 10.2236 100.216 10.2236H72.9171V14.8254H97.8992V128.961H4.6333V14.8254H29.6155V10.2236Z" fill="white"/>
</svg>
