<svg width="62" height="74" viewBox="0 0 62 74" fill="none" xmlns="http://www.w3.org/2000/svg">
<path fill-rule="evenodd" clip-rule="evenodd" d="M28.4607 22.8751C29.2525 22.3843 30.2515 22.3745 31.0528 22.8496L40.811 28.6351C40.9228 28.6735 41.0327 28.7201 41.1398 28.7749C41.9748 29.2026 42.5 30.0618 42.5 31V31.0549V31.0669V43.8C42.5 44.6041 42.1133 45.359 41.4608 45.8288L31.4735 53.0197C31.434 53.0485 31.3935 53.0762 31.3521 53.1028C31.3378 53.112 31.3234 53.1211 31.3089 53.13C30.9377 53.3582 30.519 53.482 30.0954 53.4982C29.7822 53.5102 29.4663 53.4633 29.1648 53.3564C29.0203 53.3052 28.8797 53.2404 28.7449 53.1621C28.7299 53.1534 28.715 53.1446 28.7003 53.1356C28.6392 53.0985 28.5801 53.0589 28.5229 53.0171L18.5392 45.8288C17.8867 45.359 17.5 44.604 17.5 43.8L17.5 31.0609L17.5 31C17.5 30.0618 18.0252 29.2026 18.8602 28.7749C18.9516 28.7281 19.0449 28.6874 19.1398 28.6526L28.4607 22.8751ZM27.348 33.21L24.5398 31.188L29.8066 27.9235L35.3387 31.2034L29.8095 34.9569L27.348 33.21ZM32.5 39.4806V46.1194L37.5 42.5194V35.8806L32.5 39.4806ZM22.5 35.9006V42.5194L27.5 46.1194V39.4806L24.4402 37.2775L22.5 35.9006Z" fill="#24A544" fill-opacity="0.3"/>
<path fill-rule="evenodd" clip-rule="evenodd" d="M32.0741 0.74188C32.326 0.861499 32.561 1.02501 32.767 1.23131C32.8314 1.2955 32.8916 1.3625 32.9477 1.43195C33.8957 2.55849 35.7552 4.33594 38.1344 5.82123C40.5465 7.32699 43.2902 8.40704 46.0244 8.40704H59C60.3807 8.40704 61.5 9.52633 61.5 10.907V35.9834C61.5 50.8077 50.3549 68.5685 31.6697 73.4091C31.4542 73.4692 31.2292 73.5008 31 73.5007C30.7708 73.5008 30.5458 73.4692 30.3304 73.4091C11.6451 68.5685 0.5 50.8077 0.5 35.9834V10.907C0.5 9.52633 1.61929 8.40704 3 8.40704H15.9756C18.7098 8.40704 21.4535 7.32699 23.8656 5.82123C26.2448 4.33591 28.1044 2.55843 29.0524 1.43189C29.1083 1.36258 29.1684 1.29571 29.2327 1.23165C29.4388 1.02513 29.674 0.861475 29.9261 0.741778C30.2667 0.579553 30.634 0.499806 31 0.5C31.3661 0.499806 31.7335 0.579586 32.0741 0.74188ZM31 6.61088C29.7892 7.74404 28.2632 8.9702 26.5133 10.0626C23.6479 11.8514 19.9796 13.407 15.9756 13.407H5.5V35.9834C5.5 48.5458 15.0312 63.9661 31 68.4119C46.9688 63.9661 56.5 48.5458 56.5 35.9834V13.407H46.0244C42.0204 13.407 38.3521 11.8514 35.4867 10.0626C33.7368 8.9702 32.2108 7.74404 31 6.61088Z" fill="#24A544" fill-opacity="0.3"/>
</svg>
