<svg xmlns="http://www.w3.org/2000/svg" xmlns:xlink="http://www.w3.org/1999/xlink"><defs><style>.cls-1{fill:#24a544}</style><style>.cls-1{fill:#24a544}</style><path id="SVGID_1_" d="M-4.9-5h62.8v64H-4.9z"/><path id="SVGID_1_" d="M-4.9-5h62.8v64H-4.9z"/></defs><symbol id="arrow" viewBox="0 0 19 16"><path d="M1 7a1 1 0 000 2V7zm17.707 1.707a1 1 0 000-1.414L12.343.929a1 1 0 10-1.414 1.414L16.586 8l-5.657 5.657a1 1 0 001.414 1.414l6.364-6.364zM1 9h17V7H1v2z" fill="#fff"/></symbol><symbol id="calc" viewBox="0 0 32 32"><path d="M26 4v24H6V4h20zm0-2H6a2 2 0 00-2 2v24a2 2 0 002 2h20a2 2 0 002-2V4a2 2 0 00-2-2z" fill="#fff"/><path d="M9 24a1 1 0 112 0 1 1 0 01-2 0zm12 0a1 1 0 112 0 1 1 0 01-2 0zM9 19a1 1 0 112 0 1 1 0 01-2 0zm12 0a1 1 0 112 0 1 1 0 01-2 0zM9 14a1 1 0 112 0 1 1 0 01-2 0zm6 10a1 1 0 112 0 1 1 0 01-2 0zm0-5a1 1 0 112 0 1 1 0 01-2 0zm0-5a1 1 0 112 0 1 1 0 01-2 0zm6 0a1 1 0 112 0 1 1 0 01-2 0zM9 8.5A1.5 1.5 0 0110.5 7h11a1.5 1.5 0 010 3h-11A1.5 1.5 0 019 8.5z" fill="#fff"/></symbol><symbol id="close" viewBox="0 0 329.269 329"><path xmlns="http://www.w3.org/2000/svg" d="M194.8 164.77L323.013 36.555c8.343-8.34 8.343-21.825 0-30.164-8.34-8.34-21.825-8.34-30.164 0L164.633 134.605 36.422 6.391c-8.344-8.34-21.824-8.34-30.164 0-8.344 8.34-8.344 21.824 0 30.164l128.21 128.215L6.259 292.984c-8.344 8.34-8.344 21.825 0 30.164a21.266 21.266 0 0015.082 6.25c5.46 0 10.922-2.09 15.082-6.25l128.21-128.214 128.216 128.214a21.273 21.273 0 0015.082 6.25c5.46 0 10.922-2.09 15.082-6.25 8.343-8.34 8.343-21.824 0-30.164zm0 0" data-original="#000000"/></symbol><symbol id="coin" viewBox="0 0 68 68"><circle cx="34" cy="34" r="31.5" stroke="#24A544" stroke-opacity=".3" stroke-width="5" stroke-linecap="round" stroke-linejoin="round"/><path d="M27.423 51V20H40.03S46 20 46 28.14s-5.971 8.14-5.971 8.14H23m0 8.03h14.596" stroke="#24A544" stroke-opacity=".3" stroke-width="5" stroke-linecap="round" stroke-linejoin="round"/></symbol><symbol id="document" viewBox="0 0 65 78"><path d="M44.053 3H13C7.477 3 3 7.477 3 13v52c0 5.523 4.477 10 10 10h39c5.523 0 10-4.477 10-10V21.34M44.053 3L62 21.34M44.053 3v8.34c0 5.523 4.477 10 10 10H62M14.217 43.302h16.376m-16.376-7.698h39.258M14.217 51.453h39.258M37.1 43.302h16.376M14.217 59.604h16.376" stroke="#24A544" stroke-opacity=".3" stroke-width="5" stroke-linecap="round" stroke-linejoin="round"/></symbol><symbol id="lightning" viewBox="0 0 48 69"><path d="M36.146 3L3 37.75h16.573L11.627 66 45 29.456H28.427L36.146 3z" stroke="#24A544" stroke-opacity=".3" stroke-width="5" stroke-linejoin="round"/></symbol><symbol id="logo" viewBox="0 0 399.97 95.19"><path class="cls-1" d="M64 1.81c2.44 1.85 16.57 17.53 19.52 31.24 3.68 17.08-5.74 29.62-7.66 32.32-2.25-2-4.85-3.81-7.1-5.84l.28 29.71 28.1-6.38-6.86-5.62c3.16-4 11.17-14.92 10.57-29.81C100 27 87.72 10.2 64 1.81zM52.33 17.66C50.92 7.33 49 1.45 47.59 0c-1.37 1.45-3.32 7.33-4.73 17.66a92.546 92.546 0 019.47 0zm-4.74 18.42q3.18 0 6.29.07c-.2-5-.53-9.48-.94-13.44-1.76-.11-3.54-.17-5.35-.17s-3.58.06-5.34.17c-.41 4-.74 8.44-1 13.44 2.13-.05 4.22-.07 6.34-.07zM37.78 18c.29-2.27.62-4.43 1-6.45a61.13 61.13 0 012.57-10.2c-5.65 2.92-10.57 9.56-13.96 18.4A86.62 86.62 0 0137.78 18zM22.71 42.25c-.11 1.76-.17 3.54-.17 5.34s.06 3.59.17 5.35c4 .41 8.44.74 13.44.94q-.07-3.1-.07-6.29c0-2.12 0-4.21.07-6.29-4.99.21-9.48.54-13.44.95zM37.2 72c-.41-4.13-.71-8.54-.9-13.14-4.59-.19-9-.49-13.13-.89a78.54 78.54 0 002.32 11.73A78 78 0 0037.2 72zm3.95-30.85c0 2.07-.07 4.21-.07 6.44s0 4.37.07 6.45c2.07 0 4.21.07 6.44.07S52 54.08 54 54c0-2.08.07-4.22.07-6.45s0-4.37-.07-6.44c-2.08 0-4.22-.07-6.45-.07s-4.33.06-6.4.11z"/><path class="cls-1" d="M58.88 36.3c4.6.19 9 .49 13.14.9a78 78 0 00-2.32-11.71A78.54 78.54 0 0058 23.17c.39 4.12.69 8.54.88 13.13zm13.6 16.63c.11-1.75.17-3.53.17-5.34s-.06-3.58-.17-5.34c-4-.41-8.45-.74-13.44-1 0 2.08.07 4.17.07 6.29s0 4.22-.07 6.29c4.96-.15 9.47-.48 13.44-.9zM61.43 71.52V58.76c-.84 0-1.69.09-2.55.12-.19 4.6-.49 9-.89 13.14 1.16-.15 2.31-.32 3.44-.5zM57.41 18a87 87 0 0110.39 1.75c-3.4-8.84-8.31-15.48-13.95-18.36a60 60 0 012.58 10.2c.36 2.02.69 4.18.98 6.41zM19.75 67.8A87 87 0 0118 57.41c-2.27-.29-4.43-.62-6.45-1a60 60 0 01-10.2-2.58c2.92 5.66 9.56 10.57 18.4 13.97zm5.74-42.31a78 78 0 00-2.32 11.71c4.12-.41 8.54-.71 13.13-.9.19-4.59.49-9 .9-13.13a78 78 0 00-11.71 2.32zm22.1 33.62c-2.12 0-4.21 0-6.29-.07.21 5 .54 9.47 1 13.44 1.76.11 3.54.17 5.34.17s3.59-.06 5.35-.17c.41-4 .74-8.45.94-13.44-2.12.04-4.22.07-6.34.07zm-4.73 18.42c1.41 10.32 3.36 16.21 4.73 17.66 1.37-1.45 3.33-7.34 4.74-17.66-1.56.07-3.14.12-4.74.12s-3.17-.05-4.73-.12zm18.57-.9c-1.32.19-2.66.37-4 .51-.29 2.27-.62 4.43-1 6.45a59.94 59.94 0 01-2.58 10.21 23.29 23.29 0 007.58-6.66zm-23.65.51a84.69 84.69 0 01-10.39-1.7c3.39 8.83 8.31 15.47 13.94 18.36a61 61 0 01-2.57-10.21c-.36-2.02-.69-4.18-.98-6.45zM2.52 63.45a48 48 0 0029.22 29.21C27.42 88 23.87 81.56 21.39 73.8c-7.76-2.48-14.25-6.04-18.87-10.35zM18 37.78a86.62 86.62 0 011.71-10.39c-8.8 3.39-15.44 8.31-18.32 13.94a61.13 61.13 0 0110.2-2.57c2.02-.36 4.18-.69 6.41-.98zM31.74 2.52A48 48 0 002.52 31.74c4.62-4.32 11.11-7.87 18.87-10.35 2.48-7.76 6.03-14.25 10.35-18.87zm-14.2 45.07q0-2.4.12-4.74C7.33 44.27 1.45 46.22 0 47.59c1.45 1.41 7.33 3.33 17.66 4.74q-.12-2.33-.12-4.74z"/><path d="M119 22.68v58.09h47.81v-6.6H131.4V23s-12.4-.9-12.4-.32zm55.96.03h11.43v57.82h-11.43zm91.81 58.06V22.48h16l31.87 47.62V22.95h11.68v57.82H310.7l-31.87-47.24v47.24h-12.06zm120.76 0H400l-23.77-58.29h-19.05l-24 58.29h12.06l6.29-14.86h29.82zM354 60.07l12.58-29.71 12.35 29.71zM250 34.64c-2.58-2.14-9.67-7.4-19.56-7.36-3.25 0-10.55 0-15.49 5.2a22.24 22.24 0 00-5.91 11.75 35.61 35.61 0 00.83 16.57c.7 2.58 3.24 11.94 10.67 14.86a20.05 20.05 0 008.94 1.83c4.19-.08 6.18-.34 9-1.32a15.64 15.64 0 006.22-4.2V56.18h-10.57v-4.43h22.23V73.5a48.75 48.75 0 01-27.81 8.89c-5.53 0-19-.75-26.67-11.56-3.69-5.21-4.77-11.54-5.08-13.46a35 35 0 010-11.43c.49-2.8 2.14-12.27 10.28-18.92s17.5-6.27 22.73-6.09a38.55 38.55 0 0116.64 4.31 35.49 35.49 0 017.11 5.08z" fill="#054428"/></symbol><symbol id="m-menu" viewBox="0 0 32 32"><path d="M1.945 7.906h28.11a1.947 1.947 0 000-3.891H1.945C.873 4.016 0 4.888 0 5.96s.873 1.945 1.945 1.945zm28.11 6.149H1.945C.873 14.055 0 14.927 0 16s.873 1.945 1.945 1.945h28.11C31.128 17.945 32 17.073 32 16s-.872-1.945-1.945-1.945zm0 10.039H1.945C.873 24.094 0 24.967 0 26.04s.873 1.944 1.945 1.944h28.11c1.073 0 1.945-.872 1.945-1.944s-.872-1.946-1.945-1.946z" data-original="#000000" xmlns="http://www.w3.org/2000/svg"/></symbol><symbol id="manager1" viewBox="0 0 118 97"><path fill-rule="evenodd" clip-rule="evenodd" d="M113.72 28.21c-1.861-.497-3.6.48-3.898 2.26-.357 2.137-1.448 7.048-2.434 11.369-.496 2.173-.971 4.215-1.321 5.713l-.419 1.79-.045.189c.559 1.554.454 3.38-.639 5.106-1.42 2.24-3.302 4.897-5.183 7.533l-.592.828c-1.693 2.37-3.353 4.694-4.689 6.707a1.533 1.533 0 01-2.12.432 1.522 1.522 0 01-.432-2.114c1.366-2.061 3.06-4.431 4.747-6.791l.593-.83c1.89-2.648 3.722-5.237 5.088-7.393.643-1.014.597-1.954.243-2.698-.378-.795-1.119-1.386-1.892-1.572-.702-.17-1.479-.025-2.173.766-1.236 1.408-2.141 2.727-3.022 4.01-.225.328-.449.654-.676.979-1.094 1.562-2.267 3.082-4.011 4.285-.907.626-2.23 1.217-3.652 1.812-.53.222-1.082.447-1.654.68-1.034.423-2.137.873-3.31 1.384-3.612 1.572-7.552 3.576-10.733 6.42-2.394 2.138-3.684 4.946-4.306 7.661a19.333 19.333 0 00-.454 5.413H87.74l15.46-8.109a15.42 15.42 0 002.482-2.273c.934-1.07 1.625-2.197 1.827-3.202l.015-.073c.63-3.142 6.031-30.06 7.184-35.575.242-1.16.318-2.372.114-3.298-.194-.88-.562-1.264-1.102-1.408zm-10.551 18.3a5.725 5.725 0 00-1.723-.736c-1.772-.427-3.725.048-5.195 1.722-1.368 1.559-2.397 3.06-3.285 4.354-.214.312-.42.612-.62.898-1.053 1.503-1.97 2.644-3.243 3.523-.602.416-1.63.895-3.094 1.508-.484.202-1.013.418-1.574.647-1.059.432-2.231.911-3.43 1.433-3.7 1.61-8 3.77-11.552 6.944-2.992 2.674-4.526 6.114-5.246 9.254-.718 3.128-.651 6.06-.349 7.868a1.528 1.528 0 001.51 1.274h22.749c.248 0 .493-.06.712-.175l15.885-8.33a1.56 1.56 0 00.165-.101c.811-.566 2.018-1.573 3.11-2.822 1.071-1.225 2.165-2.836 2.521-4.608l.012-.064c.625-3.113 6.031-30.055 7.181-35.56.286-1.366.442-3.057.108-4.574-.345-1.564-1.285-3.162-3.298-3.7-3.247-.869-7.057.8-7.709 4.704-.339 2.028-1.405 6.836-2.4 11.193a1304.39 1304.39 0 01-1.235 5.348z" fill="#24A544"/><path fill-rule="evenodd" clip-rule="evenodd" d="M60.588 83.884c0-.843.685-1.526 1.53-1.526h26.928c.845 0 1.53.683 1.53 1.526v11.59c0 .843-.685 1.526-1.53 1.526H62.118c-.845 0-1.53-.683-1.53-1.525V83.884zm3.06 1.525v8.54h23.868v-8.54H63.648zM4.28 28.21c1.861-.497 3.6.48 3.898 2.26.357 2.137 1.448 7.048 2.434 11.369a1176.212 1176.212 0 001.74 7.503l.045.189c-.559 1.554-.454 3.38.64 5.106 1.418 2.24 3.3 4.897 5.182 7.533l.592.828c1.693 2.37 3.353 4.694 4.689 6.707a1.533 1.533 0 002.12.432 1.523 1.523 0 00.432-2.114c-1.366-2.061-3.06-4.431-4.747-6.791l-.593-.83c-1.89-2.648-3.722-5.237-5.088-7.393-.643-1.014-.597-1.954-.243-2.698.378-.795 1.12-1.386 1.892-1.572.702-.17 1.479-.025 2.173.766 1.236 1.408 2.141 2.727 3.022 4.01.225.328.449.654.676.979 1.095 1.562 2.267 3.082 4.011 4.285.907.626 2.23 1.217 3.652 1.812.53.222 1.082.447 1.654.68 1.034.423 2.137.873 3.31 1.384 3.612 1.572 7.552 3.576 10.733 6.42 2.394 2.138 3.684 4.946 4.306 7.661.468 2.04.545 3.97.454 5.413H30.26L14.8 74.04a15.428 15.428 0 01-2.483-2.273c-.934-1.07-1.625-2.197-1.827-3.202l-.014-.073c-.631-3.142-6.032-30.06-7.185-35.575-.242-1.16-.318-2.372-.114-3.298.194-.88.562-1.264 1.102-1.408zm10.551 18.3a5.729 5.729 0 011.723-.736c1.772-.427 3.725.048 5.195 1.722 1.368 1.559 2.397 3.06 3.285 4.354.214.312.42.612.62.898 1.052 1.503 1.97 2.644 3.243 3.523.602.416 1.63.895 3.094 1.508.484.202 1.013.418 1.574.647 1.059.432 2.231.911 3.43 1.433 3.7 1.61 8 3.77 11.552 6.944 2.992 2.674 4.526 6.114 5.246 9.254.718 3.128.651 6.06.349 7.868a1.528 1.528 0 01-1.51 1.274H29.884c-.248 0-.493-.06-.712-.175l-15.885-8.33a1.538 1.538 0 01-.165-.101c-.81-.566-2.019-1.573-3.11-2.822-1.07-1.225-2.165-2.836-2.52-4.608l-.013-.064c-.625-3.113-6.03-30.055-7.181-35.56-.286-1.366-.442-3.057-.108-4.574.345-1.564 1.285-3.162 3.298-3.7 3.247-.869 7.057.8 7.71 4.704.338 2.028 1.404 6.836 2.399 11.193.457 2.001.896 3.892 1.235 5.348z" fill="#24A544"/><path fill-rule="evenodd" clip-rule="evenodd" d="M56.914 83.884c0-.843-.685-1.526-1.53-1.526H28.456c-.845 0-1.53.683-1.53 1.526v11.59c0 .843.685 1.526 1.53 1.526h26.928c.845 0 1.53-.683 1.53-1.525V83.884zm-3.06 1.525v8.54H29.986v-8.54h23.868zM58.297.227a1.534 1.534 0 011.605 0L79.866 12.49c.452.278.727.77.727 1.299v22.446c0 .538-.285 1.037-.75 1.312L59.88 49.349a1.534 1.534 0 01-1.561 0L38.355 37.548a1.524 1.524 0 01-.75-1.312V13.79c0-.53.276-1.021.728-1.299L58.297.227zm-17.631 16.24l16.903 9.993v18.9l-16.904-9.993v-18.9zM60.629 45.36l16.904-9.993v-18.9L60.63 26.46v18.9zM59.1 23.818l17.007-10.054-7.032-4.32-16.979 10.234 7.004 4.14zm-9.99-5.905L66.146 7.645 59.1 3.317 42.094 13.765l7.017 4.148z" fill="#24A544"/></symbol><symbol id="manager2" viewBox="0 0 90 101"><path fill-rule="evenodd" clip-rule="evenodd" d="M76.036 4.035c-5.493 0-9.946 4.472-9.946 9.988 0 5.516 4.453 9.988 9.946 9.988 5.493 0 9.946-4.472 9.946-9.988 0-5.516-4.453-9.988-9.946-9.988zm-13.964 9.988C62.072 6.278 68.324 0 76.036 0 83.748 0 90 6.278 90 14.023c0 7.744-6.252 14.022-13.964 14.022-7.712 0-13.964-6.278-13.964-14.022zM13.964 76.99c-5.493 0-9.946 4.471-9.946 9.987s4.453 9.988 9.946 9.988c5.493 0 9.946-4.472 9.946-9.988 0-5.516-4.453-9.988-9.946-9.988zM0 86.976c0-7.744 6.252-14.022 13.964-14.022 7.712 0 13.963 6.278 13.963 14.022 0 7.745-6.251 14.023-13.963 14.023C6.252 101 0 94.722 0 86.977zm24.998-74.971h24.6c1.11 0 2.009.903 2.009 2.017 0 1.114-.9 2.018-2.01 2.018h-24.61l-.1.003a9 9 0 00-.442.026c-.394.032-.97.095-1.67.224-1.405.26-3.254.776-5.082 1.79-1.817 1.007-3.602 2.498-4.941 4.725-1.338 2.224-2.298 5.294-2.298 9.569 0 4.273.96 7.344 2.298 9.568 1.339 2.227 3.124 3.718 4.94 4.725 1.829 1.014 3.678 1.53 5.084 1.79.698.129 1.275.193 1.669.224a10.534 10.534 0 00.542.029h45.072c1.11 0 2.009.904 2.009 2.018 0 1.114-.9 2.017-2.01 2.017h-45.06v-2.017c0 2.017 0 2.017-.002 2.017h-.027a4.851 4.851 0 01-.23-.006 14.475 14.475 0 01-.61-.036c-.511-.04-1.228-.12-2.08-.278-1.699-.314-3.988-.945-6.298-2.225-2.321-1.288-4.675-3.238-6.439-6.173-1.766-2.938-2.875-6.75-2.875-11.654 0-4.903 1.109-8.715 2.875-11.653 1.764-2.935 4.118-4.885 6.439-6.173 2.31-1.28 4.6-1.911 6.297-2.225.854-.158 1.57-.237 2.081-.278a14.68 14.68 0 01.786-.041l.054-.001h.027c.001 0 .002 0 .002 2.017v-2.017z" fill="#24A544"/><path fill-rule="evenodd" clip-rule="evenodd" d="M69.37 89.226h-24.6a2.013 2.013 0 01-2.008-2.018c0-1.114.899-2.017 2.008-2.017h24.612l.1-.003c.095-.004.245-.011.441-.027.394-.031.971-.095 1.67-.224 1.405-.26 3.254-.776 5.082-1.79 1.817-1.007 3.602-2.497 4.942-4.725 1.337-2.224 2.297-5.294 2.297-9.568 0-4.275-.96-7.327-2.294-9.526-1.335-2.202-3.114-3.663-4.926-4.642-1.824-.986-3.67-1.476-5.075-1.716a16.283 16.283 0 00-1.668-.2 10.495 10.495 0 00-.541-.022h-.018.004a2.013 2.013 0 01-2.035-1.99 2.014 2.014 0 011.981-2.045l.028 2.018c-.028-2.018-.027-2.018-.026-2.018h.028a4.73 4.73 0 01.23.003c.147.003.353.01.61.027.511.034 1.227.104 2.081.25 1.699.29 3.991.89 6.305 2.14 2.326 1.257 4.686 3.18 6.454 6.097 1.77 2.92 2.88 6.721 2.88 11.624 0 4.903-1.11 8.716-2.876 11.654-1.764 2.934-4.117 4.885-6.439 6.172-2.31 1.28-4.6 1.912-6.297 2.225-.853.158-1.57.238-2.08.278a14.488 14.488 0 01-.84.042h-.029c-.001 0-.002 0-.002-2.017v2.018z" fill="#24A544"/></symbol><symbol id="manager3" viewBox="0 0 119 100"><path fill-rule="evenodd" clip-rule="evenodd" d="M0 36c0-4.227 3.47-7.652 7.752-7.652h69.137c4.281 0 7.752 3.425 7.752 7.651v41.416c0 4.226-3.47 7.652-7.752 7.652H19.248a4.682 4.682 0 00-3.29 1.344l-13.31 13.14a1.565 1.565 0 01-1.69.332A1.53 1.53 0 010 98.47V36zm7.752-4.592C5.183 31.408 3.1 33.464 3.1 36v58.776l10.665-10.528a7.803 7.803 0 015.482-2.241h57.641c2.569 0 4.651-2.055 4.651-4.591V35.999c0-2.535-2.082-4.59-4.65-4.59H7.751z" fill="#24A544"/><path fill-rule="evenodd" clip-rule="evenodd" d="M111.248 0c4.281 0 7.751 3.426 7.751 7.652v62.47a1.53 1.53 0 01-.957 1.414 1.564 1.564 0 01-1.689-.332l-13.312-13.14a4.685 4.685 0 00-3.29-1.345H84.34v-3.06h15.413c2.056 0 4.027.806 5.481 2.24L115.9 66.427V7.652c0-2.536-2.083-4.591-4.651-4.591H42.11c-2.569 0-4.65 2.055-4.65 4.59V30.83h-3.102V7.652C34.358 3.426 37.828 0 42.11 0h69.138z" fill="#24A544"/><path fill-rule="evenodd" clip-rule="evenodd" d="M15.898 46.583c0-.845.695-1.53 1.55-1.53h49.49c.855 0 1.55.685 1.55 1.53a1.54 1.54 0 01-1.55 1.53h-49.49a1.54 1.54 0 01-1.55-1.53zm0 10.124c0-.845.695-1.53 1.55-1.53h49.49c.855 0 1.55.685 1.55 1.53a1.54 1.54 0 01-1.55 1.53h-49.49a1.54 1.54 0 01-1.55-1.53zm0 10.125c0-.846.695-1.53 1.55-1.53h49.49c.855 0 1.55.684 1.55 1.53a1.54 1.54 0 01-1.55 1.53h-49.49a1.54 1.54 0 01-1.55-1.53zm34.359-46.066c0-.845.694-1.53 1.55-1.53h49.488a1.54 1.54 0 011.551 1.53 1.54 1.54 0 01-1.551 1.53H51.807a1.54 1.54 0 01-1.55-1.53zM89.745 30.89c0-.845.694-1.53 1.55-1.53h9.744c.856 0 1.551.686 1.551 1.53 0 .846-.695 1.531-1.551 1.531h-9.744a1.54 1.54 0 01-1.55-1.53zm0 10.125c0-.845.694-1.53 1.55-1.53h9.744c.856 0 1.551.685 1.551 1.53s-.695 1.53-1.551 1.53h-9.744a1.54 1.54 0 01-1.55-1.53z" fill="#24A544"/></symbol><symbol id="open" viewBox="0 0 206 206"><path d="M74.465 81.535a5 5 0 107.07-7.07l-7.07 7.07zM5 0a5 5 0 00-5 5v45a5 5 0 0010 0V10h40a5 5 0 000-10H5zm76.535 74.465l-73-73-7.07 7.07 73 73 7.07-7.07zm0 57.071a5.001 5.001 0 00-7.07-7.072l7.07 7.072zM0 201a5 5 0 005 5h45a5 5 0 000-10H10v-40a5 5 0 00-10 0v45zm74.465-76.536l-73 73 7.07 7.072 73-73-7.07-7.072zm49.999-49.999a5.001 5.001 0 007.072 7.07l-7.072-7.07zM206 5a5 5 0 00-5-5h-45a5 5 0 000 10h40v40a5 5 0 0010 0V5zm-74.464 76.535l73-73-7.072-7.07-73 73 7.072 7.07zm0 42.929a5.002 5.002 0 00-7.072 0 5.002 5.002 0 000 7.072l7.072-7.072zM201 206a5 5 0 005-5v-45a5 5 0 00-10 0v40h-40a5 5 0 000 10h45zm-76.536-74.464l73 73 7.072-7.072-73-73-7.072 7.072z" fill="#24A544"/></symbol><symbol id="phone" viewBox="0 0 27 27"><circle cx="13.5" cy="13.5" r="13.5" fill="#FF8A00"/><path d="M17.455 20.063c-.572 0-1.375-.207-2.578-.88-1.463-.82-2.594-1.577-4.05-3.028-1.402-1.402-2.084-2.31-3.04-4.048-1.08-1.963-.895-2.992-.69-3.432.245-.525.607-.84 1.074-1.152a5.165 5.165 0 01.92-.48c.145-.066.365-.164.643-.059.186.07.352.212.611.469.533.525 1.26 1.694 1.528 2.268.18.387.3.643.3.93 0 .335-.169.593-.373.873l-.114.15c-.223.294-.272.378-.24.53.066.303.553 1.208 1.354 2.007.8.799 1.679 1.255 1.984 1.32.157.034.244-.017.546-.248l.135-.102c.312-.232.559-.396.886-.396h.002c.285 0 .53.123.933.327.528.266 1.732.984 2.26 1.517.257.26.4.424.47.61.106.279.007.498-.058.644l-.035.08a5.17 5.17 0 01-.448.838c-.312.466-.627.827-1.154 1.072-.27.128-.567.193-.866.19z" fill="#fff"/></symbol><symbol id="poll" viewBox="0 0 103 134"><path fill-rule="evenodd" clip-rule="evenodd" d="M27.348 2.3c0-1.27 1.037-2.3 2.316-2.3h43.204c1.28 0 2.317 1.03 2.317 2.3v21.456a2.31 2.31 0 01-2.317 2.3H29.664a2.309 2.309 0 01-2.316-2.3V2.3zm4.633 2.302v16.853h38.57V4.602h-38.57zM20.379 48.671c0-1.27 1.037-2.3 2.317-2.3h14.633c1.28 0 2.317 1.03 2.317 2.3v14.534a2.31 2.31 0 01-2.317 2.3H22.696a2.309 2.309 0 01-2.317-2.3V48.671zm4.633 2.3v9.933h10v-9.932h-10zm-4.633 29.537c0-1.27 1.037-2.3 2.317-2.3h14.633c1.28 0 2.317 1.03 2.317 2.3v14.534a2.31 2.31 0 01-2.317 2.301H22.696a2.309 2.309 0 01-2.317-2.3V80.507zm4.633 2.301v9.933h10v-9.933h-10zm23.939-26.524c0-1.27 1.037-2.3 2.317-2.3h29.267c1.28 0 2.317 1.03 2.317 2.3a2.31 2.31 0 01-2.317 2.301H51.268a2.309 2.309 0 01-2.317-2.3zm0 31.835c0-1.27 1.037-2.3 2.317-2.3h29.267c1.28 0 2.317 1.03 2.317 2.3a2.31 2.31 0 01-2.317 2.301H51.268a2.309 2.309 0 01-2.317-2.3z" fill="#fff"/><path fill-rule="evenodd" clip-rule="evenodd" d="M29.616 10.224h-27.3A2.309 2.309 0 000 12.524v118.737a2.309 2.309 0 002.317 2.301h97.899a2.31 2.31 0 002.317-2.301V12.525a2.31 2.31 0 00-2.317-2.301H72.917v4.601H97.9v114.136H4.633V14.825h24.983v-4.601z" fill="#fff"/></symbol><symbol id="shield" viewBox="0 0 62 74"><path fill-rule="evenodd" clip-rule="evenodd" d="M28.46 22.875a2.5 2.5 0 012.593-.025l9.758 5.785A2.5 2.5 0 0142.5 31v12.8a2.5 2.5 0 01-1.04 2.029l-9.986 7.19a2.498 2.498 0 01-2.73.143 2.182 2.182 0 01-.221-.145l-9.984-7.188A2.5 2.5 0 0117.5 43.8V31a2.5 2.5 0 011.64-2.347l9.32-5.778zM27.349 33.21l-2.808-2.022 5.267-3.264 5.532 3.28-5.53 3.753-2.461-1.747zm5.152 6.27v6.64l5-3.6v-6.64l-5 3.6zm-10-3.58v6.62l5 3.6v-6.64l-3.06-2.202L22.5 35.9z" fill="#24A544" fill-opacity=".3"/><path fill-rule="evenodd" clip-rule="evenodd" d="M32.074.742a2.484 2.484 0 01.874.69c.948 1.126 2.807 2.904 5.186 4.39 2.413 1.505 5.156 2.585 7.89 2.585H59a2.5 2.5 0 012.5 2.5v25.076c0 14.825-11.145 32.586-29.83 37.426a2.488 2.488 0 01-1.34 0C11.645 68.57.5 50.808.5 35.983V10.907a2.5 2.5 0 012.5-2.5h12.976c2.734 0 5.477-1.08 7.89-2.586 2.379-1.485 4.238-3.263 5.186-4.39A2.483 2.483 0 0131 .5c.366 0 .733.08 1.074.243zM31 6.61a29.57 29.57 0 01-4.487 3.452c-2.865 1.788-6.533 3.344-10.537 3.344H5.5v22.576c0 12.563 9.531 27.983 25.5 32.429 15.969-4.446 25.5-19.866 25.5-32.429V13.407H46.024c-4.004 0-7.672-1.556-10.537-3.344A29.57 29.57 0 0131 6.61z" fill="#24A544" fill-opacity=".3"/></symbol><symbol id="sprite"><symbol id="arrow" viewBox="0 0 19 16"><path d="M1 7a1 1 0 000 2V7zm17.707 1.707a1 1 0 000-1.414L12.343.929a1 1 0 10-1.414 1.414L16.586 8l-5.657 5.657a1 1 0 001.414 1.414l6.364-6.364zM1 9h17V7H1v2z" fill="#fff"/></symbol><symbol id="calc" viewBox="0 0 32 32"><path d="M26 4v24H6V4h20zm0-2H6a2 2 0 00-2 2v24a2 2 0 002 2h20a2 2 0 002-2V4a2 2 0 00-2-2z" fill="#fff"/><path d="M9 24a1 1 0 112 0 1 1 0 01-2 0zm12 0a1 1 0 112 0 1 1 0 01-2 0zM9 19a1 1 0 112 0 1 1 0 01-2 0zm12 0a1 1 0 112 0 1 1 0 01-2 0zM9 14a1 1 0 112 0 1 1 0 01-2 0zm6 10a1 1 0 112 0 1 1 0 01-2 0zm0-5a1 1 0 112 0 1 1 0 01-2 0zm0-5a1 1 0 112 0 1 1 0 01-2 0zm6 0a1 1 0 112 0 1 1 0 01-2 0zM9 8.5A1.5 1.5 0 0110.5 7h11a1.5 1.5 0 010 3h-11A1.5 1.5 0 019 8.5z" fill="#fff"/></symbol><symbol id="close" viewBox="0 0 329.269 329"><path xmlns="http://www.w3.org/2000/svg" d="M194.8 164.77L323.013 36.555c8.343-8.34 8.343-21.825 0-30.164-8.34-8.34-21.825-8.34-30.164 0L164.633 134.605 36.422 6.391c-8.344-8.34-21.824-8.34-30.164 0-8.344 8.34-8.344 21.824 0 30.164l128.21 128.215L6.259 292.984c-8.344 8.34-8.344 21.825 0 30.164a21.266 21.266 0 0015.082 6.25c5.46 0 10.922-2.09 15.082-6.25l128.21-128.214 128.216 128.214a21.273 21.273 0 0015.082 6.25c5.46 0 10.922-2.09 15.082-6.25 8.343-8.34 8.343-21.824 0-30.164zm0 0" data-original="#000000"/></symbol><symbol id="coin" viewBox="0 0 68 68"><circle cx="34" cy="34" r="31.5" stroke="#24A544" stroke-opacity=".3" stroke-width="5" stroke-linecap="round" stroke-linejoin="round"/><path d="M27.423 51V20H40.03S46 20 46 28.14s-5.971 8.14-5.971 8.14H23m0 8.03h14.596" stroke="#24A544" stroke-opacity=".3" stroke-width="5" stroke-linecap="round" stroke-linejoin="round"/></symbol><symbol id="document" viewBox="0 0 65 78"><path d="M44.053 3H13C7.477 3 3 7.477 3 13v52c0 5.523 4.477 10 10 10h39c5.523 0 10-4.477 10-10V21.34M44.053 3L62 21.34M44.053 3v8.34c0 5.523 4.477 10 10 10H62M14.217 43.302h16.376m-16.376-7.698h39.258M14.217 51.453h39.258M37.1 43.302h16.376M14.217 59.604h16.376" stroke="#24A544" stroke-opacity=".3" stroke-width="5" stroke-linecap="round" stroke-linejoin="round"/></symbol><symbol id="lightning" viewBox="0 0 48 69"><path d="M36.146 3L3 37.75h16.573L11.627 66 45 29.456H28.427L36.146 3z" stroke="#24A544" stroke-opacity=".3" stroke-width="5" stroke-linejoin="round"/></symbol><symbol id="logo" viewBox="0 0 399.97 95.19"><path class="cls-1" d="M64 1.81c2.44 1.85 16.57 17.53 19.52 31.24 3.68 17.08-5.74 29.62-7.66 32.32-2.25-2-4.85-3.81-7.1-5.84l.28 29.71 28.1-6.38-6.86-5.62c3.16-4 11.17-14.92 10.57-29.81C100 27 87.72 10.2 64 1.81zM52.33 17.66C50.92 7.33 49 1.45 47.59 0c-1.37 1.45-3.32 7.33-4.73 17.66a92.546 92.546 0 019.47 0zm-4.74 18.42q3.18 0 6.29.07c-.2-5-.53-9.48-.94-13.44-1.76-.11-3.54-.17-5.35-.17s-3.58.06-5.34.17c-.41 4-.74 8.44-1 13.44 2.13-.05 4.22-.07 6.34-.07zM37.78 18c.29-2.27.62-4.43 1-6.45a61.13 61.13 0 012.57-10.2c-5.65 2.92-10.57 9.56-13.96 18.4A86.62 86.62 0 0137.78 18zM22.71 42.25c-.11 1.76-.17 3.54-.17 5.34s.06 3.59.17 5.35c4 .41 8.44.74 13.44.94q-.07-3.1-.07-6.29c0-2.12 0-4.21.07-6.29-4.99.21-9.48.54-13.44.95zM37.2 72c-.41-4.13-.71-8.54-.9-13.14-4.59-.19-9-.49-13.13-.89a78.54 78.54 0 002.32 11.73A78 78 0 0037.2 72zm3.95-30.85c0 2.07-.07 4.21-.07 6.44s0 4.37.07 6.45c2.07 0 4.21.07 6.44.07S52 54.08 54 54c0-2.08.07-4.22.07-6.45s0-4.37-.07-6.44c-2.08 0-4.22-.07-6.45-.07s-4.33.06-6.4.11z"/><path class="cls-1" d="M58.88 36.3c4.6.19 9 .49 13.14.9a78 78 0 00-2.32-11.71A78.54 78.54 0 0058 23.17c.39 4.12.69 8.54.88 13.13zm13.6 16.63c.11-1.75.17-3.53.17-5.34s-.06-3.58-.17-5.34c-4-.41-8.45-.74-13.44-1 0 2.08.07 4.17.07 6.29s0 4.22-.07 6.29c4.96-.15 9.47-.48 13.44-.9zM61.43 71.52V58.76c-.84 0-1.69.09-2.55.12-.19 4.6-.49 9-.89 13.14 1.16-.15 2.31-.32 3.44-.5zM57.41 18a87 87 0 0110.39 1.75c-3.4-8.84-8.31-15.48-13.95-18.36a60 60 0 012.58 10.2c.36 2.02.69 4.18.98 6.41zM19.75 67.8A87 87 0 0118 57.41c-2.27-.29-4.43-.62-6.45-1a60 60 0 01-10.2-2.58c2.92 5.66 9.56 10.57 18.4 13.97zm5.74-42.31a78 78 0 00-2.32 11.71c4.12-.41 8.54-.71 13.13-.9.19-4.59.49-9 .9-13.13a78 78 0 00-11.71 2.32zm22.1 33.62c-2.12 0-4.21 0-6.29-.07.21 5 .54 9.47 1 13.44 1.76.11 3.54.17 5.34.17s3.59-.06 5.35-.17c.41-4 .74-8.45.94-13.44-2.12.04-4.22.07-6.34.07zm-4.73 18.42c1.41 10.32 3.36 16.21 4.73 17.66 1.37-1.45 3.33-7.34 4.74-17.66-1.56.07-3.14.12-4.74.12s-3.17-.05-4.73-.12zm18.57-.9c-1.32.19-2.66.37-4 .51-.29 2.27-.62 4.43-1 6.45a59.94 59.94 0 01-2.58 10.21 23.29 23.29 0 007.58-6.66zm-23.65.51a84.69 84.69 0 01-10.39-1.7c3.39 8.83 8.31 15.47 13.94 18.36a61 61 0 01-2.57-10.21c-.36-2.02-.69-4.18-.98-6.45zM2.52 63.45a48 48 0 0029.22 29.21C27.42 88 23.87 81.56 21.39 73.8c-7.76-2.48-14.25-6.04-18.87-10.35zM18 37.78a86.62 86.62 0 011.71-10.39c-8.8 3.39-15.44 8.31-18.32 13.94a61.13 61.13 0 0110.2-2.57c2.02-.36 4.18-.69 6.41-.98zM31.74 2.52A48 48 0 002.52 31.74c4.62-4.32 11.11-7.87 18.87-10.35 2.48-7.76 6.03-14.25 10.35-18.87zm-14.2 45.07q0-2.4.12-4.74C7.33 44.27 1.45 46.22 0 47.59c1.45 1.41 7.33 3.33 17.66 4.74q-.12-2.33-.12-4.74z"/><path d="M119 22.68v58.09h47.81v-6.6H131.4V23s-12.4-.9-12.4-.32zm55.96.03h11.43v57.82h-11.43zm91.81 58.06V22.48h16l31.87 47.62V22.95h11.68v57.82H310.7l-31.87-47.24v47.24h-12.06zm120.76 0H400l-23.77-58.29h-19.05l-24 58.29h12.06l6.29-14.86h29.82zM354 60.07l12.58-29.71 12.35 29.71zM250 34.64c-2.58-2.14-9.67-7.4-19.56-7.36-3.25 0-10.55 0-15.49 5.2a22.24 22.24 0 00-5.91 11.75 35.61 35.61 0 00.83 16.57c.7 2.58 3.24 11.94 10.67 14.86a20.05 20.05 0 008.94 1.83c4.19-.08 6.18-.34 9-1.32a15.64 15.64 0 006.22-4.2V56.18h-10.57v-4.43h22.23V73.5a48.75 48.75 0 01-27.81 8.89c-5.53 0-19-.75-26.67-11.56-3.69-5.21-4.77-11.54-5.08-13.46a35 35 0 010-11.43c.49-2.8 2.14-12.27 10.28-18.92s17.5-6.27 22.73-6.09a38.55 38.55 0 0116.64 4.31 35.49 35.49 0 017.11 5.08z" fill="#054428"/></symbol><symbol id="m-menu" viewBox="0 0 32 32"><path d="M1.945 7.906h28.11a1.947 1.947 0 000-3.891H1.945C.873 4.016 0 4.888 0 5.96s.873 1.945 1.945 1.945zm28.11 6.149H1.945C.873 14.055 0 14.927 0 16s.873 1.945 1.945 1.945h28.11C31.128 17.945 32 17.073 32 16s-.872-1.945-1.945-1.945zm0 10.039H1.945C.873 24.094 0 24.967 0 26.04s.873 1.944 1.945 1.944h28.11c1.073 0 1.945-.872 1.945-1.944s-.872-1.946-1.945-1.946z" data-original="#000000" xmlns="http://www.w3.org/2000/svg"/></symbol><symbol id="manager1" viewBox="0 0 118 97"><path fill-rule="evenodd" clip-rule="evenodd" d="M113.72 28.21c-1.861-.497-3.6.48-3.898 2.26-.357 2.137-1.448 7.048-2.434 11.369-.496 2.173-.971 4.215-1.321 5.713l-.419 1.79-.045.189c.559 1.554.454 3.38-.639 5.106-1.42 2.24-3.302 4.897-5.183 7.533l-.592.828c-1.693 2.37-3.353 4.694-4.689 6.707a1.533 1.533 0 01-2.12.432 1.522 1.522 0 01-.432-2.114c1.366-2.061 3.06-4.431 4.747-6.791l.593-.83c1.89-2.648 3.722-5.237 5.088-7.393.643-1.014.597-1.954.243-2.698-.378-.795-1.119-1.386-1.892-1.572-.702-.17-1.479-.025-2.173.766-1.236 1.408-2.141 2.727-3.022 4.01-.225.328-.449.654-.676.979-1.094 1.562-2.267 3.082-4.011 4.285-.907.626-2.23 1.217-3.652 1.812-.53.222-1.082.447-1.654.68-1.034.423-2.137.873-3.31 1.384-3.612 1.572-7.552 3.576-10.733 6.42-2.394 2.138-3.684 4.946-4.306 7.661a19.333 19.333 0 00-.454 5.413H87.74l15.46-8.109a15.42 15.42 0 002.482-2.273c.934-1.07 1.625-2.197 1.827-3.202l.015-.073c.63-3.142 6.031-30.06 7.184-35.575.242-1.16.318-2.372.114-3.298-.194-.88-.562-1.264-1.102-1.408zm-10.551 18.3a5.725 5.725 0 00-1.723-.736c-1.772-.427-3.725.048-5.195 1.722-1.368 1.559-2.397 3.06-3.285 4.354-.214.312-.42.612-.62.898-1.053 1.503-1.97 2.644-3.243 3.523-.602.416-1.63.895-3.094 1.508-.484.202-1.013.418-1.574.647-1.059.432-2.231.911-3.43 1.433-3.7 1.61-8 3.77-11.552 6.944-2.992 2.674-4.526 6.114-5.246 9.254-.718 3.128-.651 6.06-.349 7.868a1.528 1.528 0 001.51 1.274h22.749c.248 0 .493-.06.712-.175l15.885-8.33a1.56 1.56 0 00.165-.101c.811-.566 2.018-1.573 3.11-2.822 1.071-1.225 2.165-2.836 2.521-4.608l.012-.064c.625-3.113 6.031-30.055 7.181-35.56.286-1.366.442-3.057.108-4.574-.345-1.564-1.285-3.162-3.298-3.7-3.247-.869-7.057.8-7.709 4.704-.339 2.028-1.405 6.836-2.4 11.193a1304.39 1304.39 0 01-1.235 5.348z" fill="#24A544"/><path fill-rule="evenodd" clip-rule="evenodd" d="M60.588 83.884c0-.843.685-1.526 1.53-1.526h26.928c.845 0 1.53.683 1.53 1.526v11.59c0 .843-.685 1.526-1.53 1.526H62.118c-.845 0-1.53-.683-1.53-1.525V83.884zm3.06 1.525v8.54h23.868v-8.54H63.648zM4.28 28.21c1.861-.497 3.6.48 3.898 2.26.357 2.137 1.448 7.048 2.434 11.369a1176.212 1176.212 0 001.74 7.503l.045.189c-.559 1.554-.454 3.38.64 5.106 1.418 2.24 3.3 4.897 5.182 7.533l.592.828c1.693 2.37 3.353 4.694 4.689 6.707a1.533 1.533 0 002.12.432 1.523 1.523 0 00.432-2.114c-1.366-2.061-3.06-4.431-4.747-6.791l-.593-.83c-1.89-2.648-3.722-5.237-5.088-7.393-.643-1.014-.597-1.954-.243-2.698.378-.795 1.12-1.386 1.892-1.572.702-.17 1.479-.025 2.173.766 1.236 1.408 2.141 2.727 3.022 4.01.225.328.449.654.676.979 1.095 1.562 2.267 3.082 4.011 4.285.907.626 2.23 1.217 3.652 1.812.53.222 1.082.447 1.654.68 1.034.423 2.137.873 3.31 1.384 3.612 1.572 7.552 3.576 10.733 6.42 2.394 2.138 3.684 4.946 4.306 7.661.468 2.04.545 3.97.454 5.413H30.26L14.8 74.04a15.428 15.428 0 01-2.483-2.273c-.934-1.07-1.625-2.197-1.827-3.202l-.014-.073c-.631-3.142-6.032-30.06-7.185-35.575-.242-1.16-.318-2.372-.114-3.298.194-.88.562-1.264 1.102-1.408zm10.551 18.3a5.729 5.729 0 011.723-.736c1.772-.427 3.725.048 5.195 1.722 1.368 1.559 2.397 3.06 3.285 4.354.214.312.42.612.62.898 1.052 1.503 1.97 2.644 3.243 3.523.602.416 1.63.895 3.094 1.508.484.202 1.013.418 1.574.647 1.059.432 2.231.911 3.43 1.433 3.7 1.61 8 3.77 11.552 6.944 2.992 2.674 4.526 6.114 5.246 9.254.718 3.128.651 6.06.349 7.868a1.528 1.528 0 01-1.51 1.274H29.884c-.248 0-.493-.06-.712-.175l-15.885-8.33a1.538 1.538 0 01-.165-.101c-.81-.566-2.019-1.573-3.11-2.822-1.07-1.225-2.165-2.836-2.52-4.608l-.013-.064c-.625-3.113-6.03-30.055-7.181-35.56-.286-1.366-.442-3.057-.108-4.574.345-1.564 1.285-3.162 3.298-3.7 3.247-.869 7.057.8 7.71 4.704.338 2.028 1.404 6.836 2.399 11.193.457 2.001.896 3.892 1.235 5.348z" fill="#24A544"/><path fill-rule="evenodd" clip-rule="evenodd" d="M56.914 83.884c0-.843-.685-1.526-1.53-1.526H28.456c-.845 0-1.53.683-1.53 1.526v11.59c0 .843.685 1.526 1.53 1.526h26.928c.845 0 1.53-.683 1.53-1.525V83.884zm-3.06 1.525v8.54H29.986v-8.54h23.868zM58.297.227a1.534 1.534 0 011.605 0L79.866 12.49c.452.278.727.77.727 1.299v22.446c0 .538-.285 1.037-.75 1.312L59.88 49.349a1.534 1.534 0 01-1.561 0L38.355 37.548a1.524 1.524 0 01-.75-1.312V13.79c0-.53.276-1.021.728-1.299L58.297.227zm-17.631 16.24l16.903 9.993v18.9l-16.904-9.993v-18.9zM60.629 45.36l16.904-9.993v-18.9L60.63 26.46v18.9zM59.1 23.818l17.007-10.054-7.032-4.32-16.979 10.234 7.004 4.14zm-9.99-5.905L66.146 7.645 59.1 3.317 42.094 13.765l7.017 4.148z" fill="#24A544"/></symbol><symbol id="manager2" viewBox="0 0 90 101"><path fill-rule="evenodd" clip-rule="evenodd" d="M76.036 4.035c-5.493 0-9.946 4.472-9.946 9.988 0 5.516 4.453 9.988 9.946 9.988 5.493 0 9.946-4.472 9.946-9.988 0-5.516-4.453-9.988-9.946-9.988zm-13.964 9.988C62.072 6.278 68.324 0 76.036 0 83.748 0 90 6.278 90 14.023c0 7.744-6.252 14.022-13.964 14.022-7.712 0-13.964-6.278-13.964-14.022zM13.964 76.99c-5.493 0-9.946 4.471-9.946 9.987s4.453 9.988 9.946 9.988c5.493 0 9.946-4.472 9.946-9.988 0-5.516-4.453-9.988-9.946-9.988zM0 86.976c0-7.744 6.252-14.022 13.964-14.022 7.712 0 13.963 6.278 13.963 14.022 0 7.745-6.251 14.023-13.963 14.023C6.252 101 0 94.722 0 86.977zm24.998-74.971h24.6c1.11 0 2.009.903 2.009 2.017 0 1.114-.9 2.018-2.01 2.018h-24.61l-.1.003a9 9 0 00-.442.026c-.394.032-.97.095-1.67.224-1.405.26-3.254.776-5.082 1.79-1.817 1.007-3.602 2.498-4.941 4.725-1.338 2.224-2.298 5.294-2.298 9.569 0 4.273.96 7.344 2.298 9.568 1.339 2.227 3.124 3.718 4.94 4.725 1.829 1.014 3.678 1.53 5.084 1.79.698.129 1.275.193 1.669.224a10.534 10.534 0 00.542.029h45.072c1.11 0 2.009.904 2.009 2.018 0 1.114-.9 2.017-2.01 2.017h-45.06v-2.017c0 2.017 0 2.017-.002 2.017h-.027a4.851 4.851 0 01-.23-.006 14.475 14.475 0 01-.61-.036c-.511-.04-1.228-.12-2.08-.278-1.699-.314-3.988-.945-6.298-2.225-2.321-1.288-4.675-3.238-6.439-6.173-1.766-2.938-2.875-6.75-2.875-11.654 0-4.903 1.109-8.715 2.875-11.653 1.764-2.935 4.118-4.885 6.439-6.173 2.31-1.28 4.6-1.911 6.297-2.225.854-.158 1.57-.237 2.081-.278a14.68 14.68 0 01.786-.041l.054-.001h.027c.001 0 .002 0 .002 2.017v-2.017z" fill="#24A544"/><path fill-rule="evenodd" clip-rule="evenodd" d="M69.37 89.226h-24.6a2.013 2.013 0 01-2.008-2.018c0-1.114.899-2.017 2.008-2.017h24.612l.1-.003c.095-.004.245-.011.441-.027.394-.031.971-.095 1.67-.224 1.405-.26 3.254-.776 5.082-1.79 1.817-1.007 3.602-2.497 4.942-4.725 1.337-2.224 2.297-5.294 2.297-9.568 0-4.275-.96-7.327-2.294-9.526-1.335-2.202-3.114-3.663-4.926-4.642-1.824-.986-3.67-1.476-5.075-1.716a16.283 16.283 0 00-1.668-.2 10.495 10.495 0 00-.541-.022h-.018.004a2.013 2.013 0 01-2.035-1.99 2.014 2.014 0 011.981-2.045l.028 2.018c-.028-2.018-.027-2.018-.026-2.018h.028a4.73 4.73 0 01.23.003c.147.003.353.01.61.027.511.034 1.227.104 2.081.25 1.699.29 3.991.89 6.305 2.14 2.326 1.257 4.686 3.18 6.454 6.097 1.77 2.92 2.88 6.721 2.88 11.624 0 4.903-1.11 8.716-2.876 11.654-1.764 2.934-4.117 4.885-6.439 6.172-2.31 1.28-4.6 1.912-6.297 2.225-.853.158-1.57.238-2.08.278a14.488 14.488 0 01-.84.042h-.029c-.001 0-.002 0-.002-2.017v2.018z" fill="#24A544"/></symbol><symbol id="manager3" viewBox="0 0 119 100"><path fill-rule="evenodd" clip-rule="evenodd" d="M0 36c0-4.227 3.47-7.652 7.752-7.652h69.137c4.281 0 7.752 3.425 7.752 7.651v41.416c0 4.226-3.47 7.652-7.752 7.652H19.248a4.682 4.682 0 00-3.29 1.344l-13.31 13.14a1.565 1.565 0 01-1.69.332A1.53 1.53 0 010 98.47V36zm7.752-4.592C5.183 31.408 3.1 33.464 3.1 36v58.776l10.665-10.528a7.803 7.803 0 015.482-2.241h57.641c2.569 0 4.651-2.055 4.651-4.591V35.999c0-2.535-2.082-4.59-4.65-4.59H7.751z" fill="#24A544"/><path fill-rule="evenodd" clip-rule="evenodd" d="M111.248 0c4.281 0 7.751 3.426 7.751 7.652v62.47a1.53 1.53 0 01-.957 1.414 1.564 1.564 0 01-1.689-.332l-13.312-13.14a4.685 4.685 0 00-3.29-1.345H84.34v-3.06h15.413c2.056 0 4.027.806 5.481 2.24L115.9 66.427V7.652c0-2.536-2.083-4.591-4.651-4.591H42.11c-2.569 0-4.65 2.055-4.65 4.59V30.83h-3.102V7.652C34.358 3.426 37.828 0 42.11 0h69.138z" fill="#24A544"/><path fill-rule="evenodd" clip-rule="evenodd" d="M15.898 46.583c0-.845.695-1.53 1.55-1.53h49.49c.855 0 1.55.685 1.55 1.53a1.54 1.54 0 01-1.55 1.53h-49.49a1.54 1.54 0 01-1.55-1.53zm0 10.124c0-.845.695-1.53 1.55-1.53h49.49c.855 0 1.55.685 1.55 1.53a1.54 1.54 0 01-1.55 1.53h-49.49a1.54 1.54 0 01-1.55-1.53zm0 10.125c0-.846.695-1.53 1.55-1.53h49.49c.855 0 1.55.684 1.55 1.53a1.54 1.54 0 01-1.55 1.53h-49.49a1.54 1.54 0 01-1.55-1.53zm34.359-46.066c0-.845.694-1.53 1.55-1.53h49.488a1.54 1.54 0 011.551 1.53 1.54 1.54 0 01-1.551 1.53H51.807a1.54 1.54 0 01-1.55-1.53zM89.745 30.89c0-.845.694-1.53 1.55-1.53h9.744c.856 0 1.551.686 1.551 1.53 0 .846-.695 1.531-1.551 1.531h-9.744a1.54 1.54 0 01-1.55-1.53zm0 10.125c0-.845.694-1.53 1.55-1.53h9.744c.856 0 1.551.685 1.551 1.53s-.695 1.53-1.551 1.53h-9.744a1.54 1.54 0 01-1.55-1.53z" fill="#24A544"/></symbol><symbol id="open" viewBox="0 0 206 206"><path d="M74.465 81.535a5 5 0 107.07-7.07l-7.07 7.07zM5 0a5 5 0 00-5 5v45a5 5 0 0010 0V10h40a5 5 0 000-10H5zm76.535 74.465l-73-73-7.07 7.07 73 73 7.07-7.07zm0 57.071a5.001 5.001 0 00-7.07-7.072l7.07 7.072zM0 201a5 5 0 005 5h45a5 5 0 000-10H10v-40a5 5 0 00-10 0v45zm74.465-76.536l-73 73 7.07 7.072 73-73-7.07-7.072zm49.999-49.999a5.001 5.001 0 007.072 7.07l-7.072-7.07zM206 5a5 5 0 00-5-5h-45a5 5 0 000 10h40v40a5 5 0 0010 0V5zm-74.464 76.535l73-73-7.072-7.07-73 73 7.072 7.07zm0 42.929a5.002 5.002 0 00-7.072 0 5.002 5.002 0 000 7.072l7.072-7.072zM201 206a5 5 0 005-5v-45a5 5 0 00-10 0v40h-40a5 5 0 000 10h45zm-76.536-74.464l73 73 7.072-7.072-73-73-7.072 7.072z" fill="#24A544"/></symbol><symbol id="phone" viewBox="0 0 27 27"><circle cx="13.5" cy="13.5" r="13.5" fill="#FF8A00"/><path d="M17.455 20.063c-.572 0-1.375-.207-2.578-.88-1.463-.82-2.594-1.577-4.05-3.028-1.402-1.402-2.084-2.31-3.04-4.048-1.08-1.963-.895-2.992-.69-3.432.245-.525.607-.84 1.074-1.152a5.165 5.165 0 01.92-.48c.145-.066.365-.164.643-.059.186.07.352.212.611.469.533.525 1.26 1.694 1.528 2.268.18.387.3.643.3.93 0 .335-.169.593-.373.873l-.114.15c-.223.294-.272.378-.24.53.066.303.553 1.208 1.354 2.007.8.799 1.679 1.255 1.984 1.32.157.034.244-.017.546-.248l.135-.102c.312-.232.559-.396.886-.396h.002c.285 0 .53.123.933.327.528.266 1.732.984 2.26 1.517.257.26.4.424.47.61.106.279.007.498-.058.644l-.035.08a5.17 5.17 0 01-.448.838c-.312.466-.627.827-1.154 1.072-.27.128-.567.193-.866.19z" fill="#fff"/></symbol><symbol id="poll" viewBox="0 0 103 134"><path fill-rule="evenodd" clip-rule="evenodd" d="M27.348 2.3c0-1.27 1.037-2.3 2.316-2.3h43.204c1.28 0 2.317 1.03 2.317 2.3v21.456a2.31 2.31 0 01-2.317 2.3H29.664a2.309 2.309 0 01-2.316-2.3V2.3zm4.633 2.302v16.853h38.57V4.602h-38.57zM20.379 48.671c0-1.27 1.037-2.3 2.317-2.3h14.633c1.28 0 2.317 1.03 2.317 2.3v14.534a2.31 2.31 0 01-2.317 2.3H22.696a2.309 2.309 0 01-2.317-2.3V48.671zm4.633 2.3v9.933h10v-9.932h-10zm-4.633 29.537c0-1.27 1.037-2.3 2.317-2.3h14.633c1.28 0 2.317 1.03 2.317 2.3v14.534a2.31 2.31 0 01-2.317 2.301H22.696a2.309 2.309 0 01-2.317-2.3V80.507zm4.633 2.301v9.933h10v-9.933h-10zm23.939-26.524c0-1.27 1.037-2.3 2.317-2.3h29.267c1.28 0 2.317 1.03 2.317 2.3a2.31 2.31 0 01-2.317 2.301H51.268a2.309 2.309 0 01-2.317-2.3zm0 31.835c0-1.27 1.037-2.3 2.317-2.3h29.267c1.28 0 2.317 1.03 2.317 2.3a2.31 2.31 0 01-2.317 2.301H51.268a2.309 2.309 0 01-2.317-2.3z" fill="#fff"/><path fill-rule="evenodd" clip-rule="evenodd" d="M29.616 10.224h-27.3A2.309 2.309 0 000 12.524v118.737a2.309 2.309 0 002.317 2.301h97.899a2.31 2.31 0 002.317-2.301V12.525a2.31 2.31 0 00-2.317-2.301H72.917v4.601H97.9v114.136H4.633V14.825h24.983v-4.601z" fill="#fff"/></symbol><symbol id="shield" viewBox="0 0 62 74"><path fill-rule="evenodd" clip-rule="evenodd" d="M28.46 22.875a2.5 2.5 0 012.593-.025l9.758 5.785A2.5 2.5 0 0142.5 31v12.8a2.5 2.5 0 01-1.04 2.029l-9.986 7.19a2.498 2.498 0 01-2.73.143 2.182 2.182 0 01-.221-.145l-9.984-7.188A2.5 2.5 0 0117.5 43.8V31a2.5 2.5 0 011.64-2.347l9.32-5.778zM27.349 33.21l-2.808-2.022 5.267-3.264 5.532 3.28-5.53 3.753-2.461-1.747zm5.152 6.27v6.64l5-3.6v-6.64l-5 3.6zm-10-3.58v6.62l5 3.6v-6.64l-3.06-2.202L22.5 35.9z" fill="#24A544" fill-opacity=".3"/><path fill-rule="evenodd" clip-rule="evenodd" d="M32.074.742a2.484 2.484 0 01.874.69c.948 1.126 2.807 2.904 5.186 4.39 2.413 1.505 5.156 2.585 7.89 2.585H59a2.5 2.5 0 012.5 2.5v25.076c0 14.825-11.145 32.586-29.83 37.426a2.488 2.488 0 01-1.34 0C11.645 68.57.5 50.808.5 35.983V10.907a2.5 2.5 0 012.5-2.5h12.976c2.734 0 5.477-1.08 7.89-2.586 2.379-1.485 4.238-3.263 5.186-4.39A2.483 2.483 0 0131 .5c.366 0 .733.08 1.074.243zM31 6.61a29.57 29.57 0 01-4.487 3.452c-2.865 1.788-6.533 3.344-10.537 3.344H5.5v22.576c0 12.563 9.531 27.983 25.5 32.429 15.969-4.446 25.5-19.866 25.5-32.429V13.407H46.024c-4.004 0-7.672-1.556-10.537-3.344A29.57 29.57 0 0131 6.61z" fill="#24A544" fill-opacity=".3"/></symbol><symbol id="tg" viewBox="0 0 44 44"><path d="M22 0C9.85 0 0 9.85 0 22s9.85 22 22 22 22-9.85 22-22S34.15 0 22 0z" fill="#40B3E0"/><path d="M32.705 12.655l-3.93 19.812s-.549 1.374-2.06.715l-9.068-6.953-3.297-1.593-5.55-1.869s-.853-.302-.935-.961c-.083-.66.962-1.017.962-1.017l22.064-8.656s1.814-.796 1.814.523" fill="#fff"/><path d="M16.95 32.244s-.265-.025-.595-1.069c-.33-1.044-2.005-6.54-2.005-6.54l13.327-8.463s.769-.467.741 0c0 0 .138.083-.275.468-.412.384-10.469 9.424-10.469 9.424" fill="#D2E5F1"/><path d="M21.124 28.895l-3.587 3.27s-.28.213-.587.08l.687-6.075" fill="#B5CFE4"/></symbol><symbol id="thumb" viewBox="0 0 66 67"><path fill-rule="evenodd" clip-rule="evenodd" d="M32.051 5.527c.7-.123 1.86.177 2.904 1.416 1 1.186 1.786 3.161 1.529 5.893-.485 5.149-1.434 8.647-1.992 10.253a2.5 2.5 0 002.36 3.32H51.72c2.588 0 5.127.811 6.78 2.302 1.522 1.373 2.545 3.538 1.864 7.017-.469 2.39-.887 4.545-1.27 6.516-.99 5.107-1.738 8.966-2.488 12.4-.825 3.779-3.438 5.897-6.872 5.749-.593-.026-1.319-.051-2.148-.08-2.642-.092-6.33-.22-10.092-.514-2.462-.193-4.9-.453-7.035-.81-2.178-.366-3.863-.805-4.915-1.289a240.52 240.52 0 00-8.175-3.584V29.211a42.89 42.89 0 004.1-2.53c1.869-1.3 3.834-2.879 4.994-4.35 1.196-1.514 2.105-2.82 2.794-4.224.7-1.425 1.122-2.845 1.463-4.544.196-.975.269-2.126.331-3.111l.001-.019.004-.063c.066-1.042.126-1.994.26-2.859.14-.904.327-1.466.513-1.777.116-.194.163-.2.207-.205l.016-.002zm9.41 7.778c.372-3.94-.74-7.279-2.684-9.585-1.9-2.253-4.732-3.62-7.591-3.118-1.73.304-2.916 1.338-3.65 2.568-.678 1.135-.988 2.45-1.163 3.578-.169 1.094-.241 2.247-.302 3.221l-.01.15c-.068 1.08-.127 1.876-.244 2.459-.286 1.428-.597 2.405-1.049 3.325-.462.941-1.123 1.928-2.23 3.331-.683.865-2.138 2.1-3.925 3.342-.631.439-1.27.856-1.886 1.235a8.004 8.004 0 00-7.606-5.515H8a8 8 0 00-8 8v32.66a8 8 0 008 8h1.12a8 8 0 007.987-7.526c1.738.74 3.934 1.704 6.349 2.814 1.67.767 3.885 1.292 6.175 1.676 2.335.391 4.934.665 7.472.864 3.885.303 7.751.438 10.392.53.797.027 1.482.05 2.022.074 6.198.268 10.704-3.867 11.972-9.677.764-3.496 1.529-7.438 2.525-12.576.38-1.961.795-4.096 1.255-6.446.993-5.067-.496-9.052-3.422-11.691-2.797-2.523-6.644-3.588-10.128-3.588H40.162c.496-2.083.989-4.803 1.3-8.105zM8 23.295h1.12a3 3 0 013 3v32.66a3 3 0 01-3 3H8a3 3 0 01-3-3v-32.66a3 3 0 013-3z" fill="#24A544" fill-opacity=".3"/></symbol><symbol id="truck" viewBox="0 0 104 66"><path fill-rule="evenodd" clip-rule="evenodd" d="M.5 3A2.5 2.5 0 013 .5h62.405a2.5 2.5 0 012.5 2.5v5.569h18a2.5 2.5 0 012.388 1.757l4.409 14.157H101a2.5 2.5 0 012.5 2.5V55a2.5 2.5 0 01-2.5 2.5h-7.285C92.583 62.37 88.215 66 83 66s-9.583-3.63-10.715-8.5h-30.57C40.583 62.37 36.215 66 31 66s-9.583-3.63-10.715-8.5H3A2.5 2.5 0 01.5 55V3zm71.785 49.5C73.417 47.63 77.785 44 83 44s9.583 3.63 10.715 8.5H98.5V29.483H67.905V52.5h4.38zm-9.38 0h-21.19c-1.054-4.532-4.909-7.99-9.641-8.448h30.83V52.5zM5.5 44.052h24.426c-4.732.458-8.587 3.916-9.64 8.448H5.5v-8.448zm0-5h57.405V5.5H5.5v33.552zm62.405-14.57h19.56l-3.4-10.913h-16.16v10.914zM31 61a6 6 0 100-12 6 6 0 000 12zm58-6a6 6 0 11-12 0 6 6 0 0112 0z" fill="#24A544" fill-opacity=".3"/></symbol><symbol id="wa" viewBox="0 0 53 54"><style/><clipPath id="SVGID_00000041297765783933811310000009808842120219089056_"><use xlink:href="#SVGID_1_" overflow="visible"/></clipPath><g clip-path="url(#SVGID_00000041297765783933811310000009808842120219089056_)"><path d="M11.7 49.8l1 .5c4.3 2.6 9.1 3.8 13.9 3.8C41.7 54.1 54 41.7 54 26.5c0-7.2-2.9-14.3-8-19.5-5.2-5.1-12.1-8-19.4-8C11.5-1-.8 11.4-.6 26.7c0 5.2 1.5 10.2 4.1 14.5l.7 1-2.8 10.2 10.3-2.6z" fill="#24a544"/><path d="M48.8 4.3C43-1.7 35-5 26.8-5 9.3-5-4.7 9.3-4.6 26.7c0 5.5 1.5 10.9 4.1 15.7L-5 58.8l16.6-4.3c4.6 2.6 9.8 3.8 14.9 3.8 17.3 0 31.3-14.3 31.3-31.7.1-8.5-3.1-16.4-9-22.3zm-22 48.6c-4.6 0-9.2-1.2-13.2-3.6l-1-.5-9.9 2.6 2.6-9.8-.7-1C-2.9 28.4.7 12.1 13 4.6 25.3-3 41.2.6 48.8 13.1c7.5 12.4 3.9 28.5-8.4 36-4.1 2.4-8.8 3.8-13.6 3.8zm15-19.1l-1.9-.9s-2.7-1.2-4.5-2.1c-.2 0-.3-.2-.5-.2-.5 0-.9.2-1.2.3 0 0-.2.2-2.6 2.9-.2.3-.5.5-.9.5H30c-.2 0-.5-.2-.7-.3l-.9-.3c-1.9-.9-3.6-1.9-5-3.3-.3-.3-.9-.7-1.2-1-1.2-1.2-2.4-2.6-3.3-4.1l.2-.3c-.2-.2-.2-.3-.3-.7 0-.3 0-.7.2-.9 0 0 .7-.9 1.2-1.4.3-.3.5-.9.9-1.2.3-.5.5-1.2.3-1.7-.2-.9-2.2-5.5-2.7-6.6-.3-.5-.7-.7-1.2-.9h-1.9c-.3 0-.7.2-1 .2l-.2.2c-.3.2-.7.5-1 .7-.3.3-.5.7-.9 1-1.2 1.6-1.9 3.4-1.9 5.3 0 1.4.3 2.8.9 4l.2.5c1.5 3.3 3.6 6.2 6.3 8.8l.7.7c.5.5 1 .9 1.4 1.4 3.6 3.1 7.7 5.3 12.3 6.6.5.2 1.2.2 1.7.3h1.7c.9 0 1.9-.3 2.6-.7.5-.3.9-.3 1.2-.7l.3-.3c.3-.3.7-.5 1-.9.3-.3.7-.7.9-1 .3-.7.5-1.6.7-2.4v-1.2c-.2 0-.3-.1-.7-.3z" fill="#fff"/></g></symbol></symbol><symbol id="tg" viewBox="0 0 44 44"><path d="M22 0C9.85 0 0 9.85 0 22s9.85 22 22 22 22-9.85 22-22S34.15 0 22 0z" fill="#40B3E0"/><path d="M32.705 12.655l-3.93 19.812s-.549 1.374-2.06.715l-9.068-6.953-3.297-1.593-5.55-1.869s-.853-.302-.935-.961c-.083-.66.962-1.017.962-1.017l22.064-8.656s1.814-.796 1.814.523" fill="#fff"/><path d="M16.95 32.244s-.265-.025-.595-1.069c-.33-1.044-2.005-6.54-2.005-6.54l13.327-8.463s.769-.467.741 0c0 0 .138.083-.275.468-.412.384-10.469 9.424-10.469 9.424" fill="#D2E5F1"/><path d="M21.124 28.895l-3.587 3.27s-.28.213-.587.08l.687-6.075" fill="#B5CFE4"/></symbol><symbol id="thumb" viewBox="0 0 66 67"><path fill-rule="evenodd" clip-rule="evenodd" d="M32.051 5.527c.7-.123 1.86.177 2.904 1.416 1 1.186 1.786 3.161 1.529 5.893-.485 5.149-1.434 8.647-1.992 10.253a2.5 2.5 0 002.36 3.32H51.72c2.588 0 5.127.811 6.78 2.302 1.522 1.373 2.545 3.538 1.864 7.017-.469 2.39-.887 4.545-1.27 6.516-.99 5.107-1.738 8.966-2.488 12.4-.825 3.779-3.438 5.897-6.872 5.749-.593-.026-1.319-.051-2.148-.08-2.642-.092-6.33-.22-10.092-.514-2.462-.193-4.9-.453-7.035-.81-2.178-.366-3.863-.805-4.915-1.289a240.52 240.52 0 00-8.175-3.584V29.211a42.89 42.89 0 004.1-2.53c1.869-1.3 3.834-2.879 4.994-4.35 1.196-1.514 2.105-2.82 2.794-4.224.7-1.425 1.122-2.845 1.463-4.544.196-.975.269-2.126.331-3.111l.001-.019.004-.063c.066-1.042.126-1.994.26-2.859.14-.904.327-1.466.513-1.777.116-.194.163-.2.207-.205l.016-.002zm9.41 7.778c.372-3.94-.74-7.279-2.684-9.585-1.9-2.253-4.732-3.62-7.591-3.118-1.73.304-2.916 1.338-3.65 2.568-.678 1.135-.988 2.45-1.163 3.578-.169 1.094-.241 2.247-.302 3.221l-.01.15c-.068 1.08-.127 1.876-.244 2.459-.286 1.428-.597 2.405-1.049 3.325-.462.941-1.123 1.928-2.23 3.331-.683.865-2.138 2.1-3.925 3.342-.631.439-1.27.856-1.886 1.235a8.004 8.004 0 00-7.606-5.515H8a8 8 0 00-8 8v32.66a8 8 0 008 8h1.12a8 8 0 007.987-7.526c1.738.74 3.934 1.704 6.349 2.814 1.67.767 3.885 1.292 6.175 1.676 2.335.391 4.934.665 7.472.864 3.885.303 7.751.438 10.392.53.797.027 1.482.05 2.022.074 6.198.268 10.704-3.867 11.972-9.677.764-3.496 1.529-7.438 2.525-12.576.38-1.961.795-4.096 1.255-6.446.993-5.067-.496-9.052-3.422-11.691-2.797-2.523-6.644-3.588-10.128-3.588H40.162c.496-2.083.989-4.803 1.3-8.105zM8 23.295h1.12a3 3 0 013 3v32.66a3 3 0 01-3 3H8a3 3 0 01-3-3v-32.66a3 3 0 013-3z" fill="#24A544" fill-opacity=".3"/></symbol><symbol id="truck" viewBox="0 0 104 66"><path fill-rule="evenodd" clip-rule="evenodd" d="M.5 3A2.5 2.5 0 013 .5h62.405a2.5 2.5 0 012.5 2.5v5.569h18a2.5 2.5 0 012.388 1.757l4.409 14.157H101a2.5 2.5 0 012.5 2.5V55a2.5 2.5 0 01-2.5 2.5h-7.285C92.583 62.37 88.215 66 83 66s-9.583-3.63-10.715-8.5h-30.57C40.583 62.37 36.215 66 31 66s-9.583-3.63-10.715-8.5H3A2.5 2.5 0 01.5 55V3zm71.785 49.5C73.417 47.63 77.785 44 83 44s9.583 3.63 10.715 8.5H98.5V29.483H67.905V52.5h4.38zm-9.38 0h-21.19c-1.054-4.532-4.909-7.99-9.641-8.448h30.83V52.5zM5.5 44.052h24.426c-4.732.458-8.587 3.916-9.64 8.448H5.5v-8.448zm0-5h57.405V5.5H5.5v33.552zm62.405-14.57h19.56l-3.4-10.913h-16.16v10.914zM31 61a6 6 0 100-12 6 6 0 000 12zm58-6a6 6 0 11-12 0 6 6 0 0112 0z" fill="#24A544" fill-opacity=".3"/></symbol><symbol id="wa" viewBox="0 0 53 54"><style/><clipPath id="SVGID_00000041297765783933811310000009808842120219089056_"><use xlink:href="#SVGID_1_" overflow="visible"/></clipPath><g clip-path="url(#SVGID_00000041297765783933811310000009808842120219089056_)"><path d="M11.7 49.8l1 .5c4.3 2.6 9.1 3.8 13.9 3.8C41.7 54.1 54 41.7 54 26.5c0-7.2-2.9-14.3-8-19.5-5.2-5.1-12.1-8-19.4-8C11.5-1-.8 11.4-.6 26.7c0 5.2 1.5 10.2 4.1 14.5l.7 1-2.8 10.2 10.3-2.6z" fill="#24a544"/><path d="M48.8 4.3C43-1.7 35-5 26.8-5 9.3-5-4.7 9.3-4.6 26.7c0 5.5 1.5 10.9 4.1 15.7L-5 58.8l16.6-4.3c4.6 2.6 9.8 3.8 14.9 3.8 17.3 0 31.3-14.3 31.3-31.7.1-8.5-3.1-16.4-9-22.3zm-22 48.6c-4.6 0-9.2-1.2-13.2-3.6l-1-.5-9.9 2.6 2.6-9.8-.7-1C-2.9 28.4.7 12.1 13 4.6 25.3-3 41.2.6 48.8 13.1c7.5 12.4 3.9 28.5-8.4 36-4.1 2.4-8.8 3.8-13.6 3.8zm15-19.1l-1.9-.9s-2.7-1.2-4.5-2.1c-.2 0-.3-.2-.5-.2-.5 0-.9.2-1.2.3 0 0-.2.2-2.6 2.9-.2.3-.5.5-.9.5H30c-.2 0-.5-.2-.7-.3l-.9-.3c-1.9-.9-3.6-1.9-5-3.3-.3-.3-.9-.7-1.2-1-1.2-1.2-2.4-2.6-3.3-4.1l.2-.3c-.2-.2-.2-.3-.3-.7 0-.3 0-.7.2-.9 0 0 .7-.9 1.2-1.4.3-.3.5-.9.9-1.2.3-.5.5-1.2.3-1.7-.2-.9-2.2-5.5-2.7-6.6-.3-.5-.7-.7-1.2-.9h-1.9c-.3 0-.7.2-1 .2l-.2.2c-.3.2-.7.5-1 .7-.3.3-.5.7-.9 1-1.2 1.6-1.9 3.4-1.9 5.3 0 1.4.3 2.8.9 4l.2.5c1.5 3.3 3.6 6.2 6.3 8.8l.7.7c.5.5 1 .9 1.4 1.4 3.6 3.1 7.7 5.3 12.3 6.6.5.2 1.2.2 1.7.3h1.7c.9 0 1.9-.3 2.6-.7.5-.3.9-.3 1.2-.7l.3-.3c.3-.3.7-.5 1-.9.3-.3.7-.7.9-1 .3-.7.5-1.6.7-2.4v-1.2c-.2 0-.3-.1-.7-.3z" fill="#fff"/></g></symbol></svg>