<svg width="44" height="44" viewBox="0 0 44 44" fill="none" xmlns="http://www.w3.org/2000/svg">
<path d="M22 0C9.84964 0 0 9.84964 0 22C0 34.1504 9.84964 44 22 44C34.1504 44 44 34.1504 44 22C44 9.84964 34.1504 0 22 0Z" fill="#40B3E0"/>
<path d="M32.7052 12.6552L28.7756 32.467C28.7756 32.467 28.2262 33.841 26.7149 33.1815L17.6471 26.2295L14.3498 24.6359L8.79931 22.7673C8.79931 22.7673 7.94749 22.4651 7.86499 21.8056C7.78249 21.1461 8.82681 20.789 8.82681 20.789L30.8914 12.1333C30.8914 12.1333 32.7051 11.3365 32.7051 12.6555" fill="white"/>
<path d="M16.9501 32.2443C16.9501 32.2443 16.6854 32.2195 16.3554 31.1752C16.0259 30.1311 14.3496 24.6355 14.3496 24.6355L27.6765 16.1724C27.6765 16.1724 28.4459 15.7053 28.4184 16.1724C28.4184 16.1724 28.5558 16.2549 28.1434 16.6396C27.7315 17.0244 17.6745 26.0645 17.6745 26.0645" fill="#D2E5F1"/>
<path d="M21.1238 28.8948L17.5373 32.1649C17.5373 32.1649 17.2568 32.3776 16.9502 32.2443L17.637 26.1702" fill="#B5CFE4"/>
</svg>
