<svg width="66" height="67" viewBox="0 0 66 67" fill="none" xmlns="http://www.w3.org/2000/svg">
<path fill-rule="evenodd" clip-rule="evenodd" d="M32.0511 5.52689C32.7509 5.40393 33.9101 5.70444 34.9546 6.94316C35.9544 8.12876 36.7408 10.1044 36.4836 12.836C35.9987 17.9846 35.0499 21.4831 34.4916 23.0888C34.2258 23.8532 34.3465 24.699 34.8155 25.3585C35.2844 26.0181 36.0436 26.4098 36.8529 26.4098H36.8701H36.8875H36.9049H36.9224H36.94H36.9577H36.9755H36.9933H37.0113H37.0294H37.0475H37.0658H37.0841H37.1026H37.1211H37.1397H37.1584H37.1772H37.1961H37.215H37.2341H37.2532H37.2725H37.2918H37.3112H37.3307H37.3503H37.37H37.3898H37.4096H37.4296H37.4496H37.4697H37.4899H37.5102H37.5305H37.551H37.5715H37.5921H37.6128H37.6336H37.6545H37.6754H37.6965H37.7176H37.7388H37.7601H37.7814H37.8029H37.8244H37.846H37.8677H37.8894H37.9113H37.9332H37.9552H37.9773H37.9995H38.0217H38.044H38.0664H38.0889H38.1114H38.1341H38.1568H38.1795H38.2024H38.2253H38.2483H38.2714H38.2946H38.3178H38.3411H38.3645H38.388H38.4115H38.4351H38.4588H38.4825H38.5063H38.5302H38.5542H38.5782H38.6023H38.6265H38.6508H38.6751H38.6995H38.7239H38.7485H38.773H38.7977H38.8224H38.8473H38.8721H38.8971H38.9221H38.9471H38.9723H38.9975H39.0228H39.0481H39.0735H39.099H39.1245H39.1501H39.1758H39.2015H39.2273H39.2532H39.2791H39.3051H39.3311H39.3573H39.3834H39.4097H39.436H39.4623H39.4888H39.5152H39.5418H39.5684H39.5951H39.6218H39.6486H39.6754H39.7023H39.7293H39.7563H39.7834H39.8105H39.8377H39.8649H39.8923H39.9196H39.947H39.9745H40.002H40.0296H40.0573H40.085H40.1127H40.1405H40.1684H40.1963H40.2243H40.2523H40.2804H40.3085H40.3367H40.3649H40.3932H40.4216H40.4499H40.4784H40.5069H40.5354H40.564H40.5926H40.6213H40.6501H40.6789H40.7077H40.7366H40.7655H40.7945H40.8235H40.8526H40.8817H40.9109H40.9401H40.9694H40.9987H41.0281H41.0575H41.0869H41.1164H41.1459H41.1755H41.2051H41.2348H41.2645H41.2943H41.3241H41.3539H41.3838H41.4137H41.4437H41.4737H41.5037H41.5338H41.5639H41.5941H41.6243H41.6546H41.6849H41.7152H41.7456H41.776H41.8064H41.8369H41.8674H41.898H41.9286H41.9592H41.9899H42.0206H42.0513H42.0821H42.1129H42.1437H42.1746H42.2055H42.2365H42.2674H42.2985H42.3295H42.3606H42.3917H42.4229H42.454H42.4853H42.5165H42.5478H42.5791H42.6104H42.6418H42.6732H42.7046H42.7361H42.7676H42.7991H42.8306H42.8622H42.8938H42.9254H42.9571H42.9888H43.0205H43.0522H43.084H43.1158H43.1476H43.1795H43.2113H43.2432H43.2752H43.3071H43.3391H43.3711H43.4031H43.4351H43.4672H43.4993H43.5314H43.5635H43.5957H43.6278H43.66H43.6923H43.7245H43.7568H43.789H43.8213H43.8537H43.886H43.9184H43.9507H43.9831H44.0155H44.048H44.0804H44.1129H44.1454H44.1779H44.2104H44.2429H44.2755H44.3081H44.3406H44.3732H44.4058H44.4385H44.4711H44.5038H44.5364H44.5691H44.6018H44.6345H44.6672H44.7H44.7327H44.7655H44.7983H44.831H44.8638H44.8966H44.9294H44.9623H44.9951H45.0279H45.0608H45.0937H45.1265H45.1594H45.1923H45.2252H45.2581H45.291H45.3239H45.3568H45.3898H45.4227H45.4556H45.4886H45.5215H45.5545H45.5874H45.6204H45.6534H45.6863H45.7193H45.7523H45.7853H45.8183H45.8513H45.8842H45.9172H45.9502H45.9832H46.0162H46.0492H46.0822H46.1152H46.1482H46.1812H46.2142H46.2472H46.2802H46.3132H46.3462H46.3792H46.4121H46.4451H46.4781H46.5111H46.5441H46.577H46.61H46.6429H46.6759H46.7089H46.7418H46.7747H46.8077H46.8406H46.8735H46.9064H46.9393H46.9722H47.0051H47.038H47.0709H47.1038H47.1366H47.1695H47.2023H47.2352H47.268H47.3008H47.3336H47.3664H47.3992H47.4319H47.4647H47.4974H47.5302H47.5629H47.5956H47.6283H47.661H47.6936H47.7263H47.7589H47.7916H47.8242H47.8568H47.8894H47.9219H47.9545H47.987H48.0195H48.052H48.0845H48.117H48.1494H48.1819H48.2143H48.2467H48.279H48.3114H48.3437H48.3761H48.4084H48.4406H48.4729H48.5051H48.5373H48.5695H48.6017H48.6339H48.666H48.6981H48.7302H48.7623H48.7943H48.8263H48.8583H48.8903H48.9222H48.9541H48.986H49.0179H49.0497H49.0816H49.1134H49.1451H49.1769H49.2086H49.2403H49.2719H49.3035H49.3351H49.3667H49.3983H49.4298H49.4613H49.4927H49.5242H49.5555H49.5869H49.6183H49.6496H49.6808H49.7121H49.7433H49.7745H49.8056H49.8367H49.8678H49.8989H49.9299H49.9609H49.9918H50.0227H50.0536H50.0844H50.1152H50.146H50.1768H50.2075H50.2381H50.2687H50.2993H50.3299H50.3604H50.3909H50.4213H50.4517H50.4821H50.5124H50.5427H50.573H50.6032H50.6333H50.6635H50.6935H50.7236H50.7536H50.7836H50.8135H50.8434H50.8732H50.903H50.9327H50.9625H50.9921H51.0217H51.0513H51.0808H51.1103H51.1398H51.1692H51.1985H51.2278H51.2571H51.2863H51.3155H51.3446H51.3737H51.4027H51.4317H51.4606H51.4895H51.5183H51.5471H51.5759H51.6046H51.6332H51.6618H51.6903H51.7188C54.307 26.4098 56.8455 27.2202 58.4981 28.7107C60.0211 30.0842 61.0444 32.2488 60.3626 35.7277C59.8943 38.1171 59.476 40.2732 59.0938 42.2436C58.1031 47.3511 57.3546 51.2098 56.6046 54.6444C55.7796 58.4226 53.1665 60.5414 49.7331 60.3928C49.1401 60.3671 48.414 60.3418 47.585 60.313C44.9427 60.2211 41.2542 60.0928 37.4927 59.7987C35.0312 59.6063 32.5922 59.3462 30.4582 58.9885C28.2797 58.6233 26.5954 58.1838 25.5434 57.7004C22.2436 56.1842 19.3216 54.9236 17.3682 54.1163V29.2114C18.6599 28.5197 20.1078 27.6268 21.4671 26.6815C23.337 25.3812 25.3016 23.8022 26.462 22.3318C27.6578 20.8166 28.5669 19.5104 29.2562 18.1068C29.9558 16.6822 30.3781 15.2619 30.7194 13.5627C30.9152 12.5881 30.9879 11.4374 31.0502 10.4517V10.4516L31.0513 10.4334L31.0553 10.3704C31.1211 9.32771 31.1812 8.37601 31.3149 7.51121C31.4546 6.60687 31.6422 6.04513 31.828 5.73399C31.9437 5.54028 31.9909 5.53452 32.0355 5.52906C32.0407 5.52843 32.0458 5.5278 32.0511 5.52689ZM41.4615 13.3048C41.8325 9.36591 40.7216 6.026 38.7771 3.71998C36.8774 1.46707 34.0454 0.099916 31.1859 0.602313C29.4564 0.90617 28.27 1.94023 27.5354 3.17024C26.8575 4.30523 26.5478 5.61957 26.3735 6.74763C26.2045 7.84161 26.1319 8.9952 26.0706 9.96928L26.0613 10.1181C25.9929 11.1998 25.9344 11.9951 25.8174 12.5779C25.5306 14.0056 25.2201 14.9825 24.7681 15.9029C24.3058 16.8444 23.6445 17.8311 22.5371 19.2343C21.855 20.0986 20.3998 21.3336 18.6125 22.5765C17.9819 23.015 17.3431 23.4317 16.7273 23.8107C15.6819 20.6091 12.6715 18.2959 9.12088 18.2959H8C3.58172 18.2959 0 21.8777 0 26.2959V58.9553C0 63.3736 3.58172 66.9553 8 66.9553H9.12088C13.3799 66.9553 16.8616 63.6271 17.107 59.4297C18.8451 60.1699 21.0412 61.1343 23.4558 62.2438C25.1257 63.0111 27.341 63.5357 29.6315 63.9197C31.9664 64.311 34.5655 64.5851 37.103 64.7835C40.9878 65.0873 44.8543 65.2215 47.4954 65.3132L47.4957 65.3133H47.4959C48.2919 65.3409 48.9766 65.3647 49.5169 65.3881C55.715 65.6564 60.2207 61.5215 61.4895 55.711C62.2528 52.2154 63.0176 48.2729 64.0143 43.1345L64.0143 43.1343C64.3946 41.1739 64.8086 39.0395 65.2692 36.6893C66.2624 31.6217 64.7731 27.6369 61.8468 24.9977C59.0502 22.4755 55.2026 21.4098 51.7188 21.4098H51.6903H51.6618H51.6332H51.6046H51.5759H51.5471H51.5183H51.4895H51.4606H51.4317H51.4027H51.3737H51.3446H51.3155H51.2863H51.2571H51.2278H51.1985H51.1692H51.1398H51.1103H51.0808H51.0513H51.0217H50.9921H50.9625H50.9327H50.903H50.8732H50.8434H50.8135H50.7836H50.7536H50.7236H50.6935H50.6635H50.6333H50.6032H50.573H50.5427H50.5124H50.4821H50.4517H50.4213H50.3909H50.3604H50.3299H50.2993H50.2687H50.2381H50.2075H50.1768H50.146H50.1152H50.0844H50.0536H50.0227H49.9918H49.9609H49.9299H49.8989H49.8678H49.8367H49.8056H49.7745H49.7433H49.7121H49.6808H49.6496H49.6183H49.5869H49.5555H49.5242H49.4927H49.4613H49.4298H49.3983H49.3667H49.3351H49.3035H49.2719H49.2403H49.2086H49.1769H49.1451H49.1134H49.0816H49.0497H49.0179H48.986H48.9541H48.9222H48.8903H48.8583H48.8263H48.7943H48.7623H48.7302H48.6981H48.666H48.6339H48.6017H48.5695H48.5373H48.5051H48.4729H48.4406H48.4084H48.3761H48.3437H48.3114H48.279H48.2467H48.2143H48.1819H48.1494H48.117H48.0845H48.052H48.0195H47.987H47.9545H47.9219H47.8894H47.8568H47.8242H47.7916H47.7589H47.7263H47.6936H47.661H47.6283H47.5956H47.5629H47.5302H47.4974H47.4647H47.4319H47.3992H47.3664H47.3336H47.3008H47.268H47.2352H47.2023H47.1695H47.1366H47.1038H47.0709H47.038H47.0051H46.9722H46.9393H46.9064H46.8735H46.8406H46.8077H46.7747H46.7418H46.7089H46.6759H46.6429H46.61H46.577H46.5441H46.5111H46.4781H46.4451H46.4121H46.3792H46.3462H46.3132H46.2802H46.2472H46.2142H46.1812H46.1482H46.1152H46.0822H46.0492H46.0162H45.9832H45.9502H45.9172H45.8842H45.8513H45.8183H45.7853H45.7523H45.7193H45.6863H45.6534H45.6204H45.5874H45.5545H45.5215H45.4886H45.4556H45.4227H45.3898H45.3568H45.3239H45.291H45.2581H45.2252H45.1923H45.1594H45.1265H45.0937H45.0608H45.0279H44.9951H44.9623H44.9294H44.8966H44.8638H44.831H44.7983H44.7655H44.7327H44.7H44.6672H44.6345H44.6018H44.5691H44.5364H44.5038H44.4711H44.4385H44.4058H44.3732H44.3406H44.3081H44.2755H44.2429H44.2104H44.1779H44.1454H44.1129H44.0804H44.048H44.0155H43.9831H43.9507H43.9184H43.886H43.8537H43.8213H43.789H43.7568H43.7245H43.6923H43.66H43.6278H43.5957H43.5635H43.5314H43.4993H43.4672H43.4351H43.4031H43.3711H43.3391H43.3071H43.2752H43.2432H43.2113H43.1795H43.1476H43.1158H43.084H43.0522H43.0205H42.9888H42.9571H42.9254H42.8938H42.8622H42.8306H42.7991H42.7676H42.7361H42.7046H42.6732H42.6418H42.6104H42.5791H42.5478H42.5165H42.4853H42.454H42.4229H42.3917H42.3606H42.3295H42.2985H42.2674H42.2365H42.2055H42.1746H42.1437H42.1129H42.0821H42.0513H42.0206H41.9899H41.9592H41.9286H41.898H41.8674H41.8369H41.8064H41.776H41.7456H41.7152H41.6849H41.6546H41.6243H41.5941H41.5639H41.5338H41.5037H41.4737H41.4437H41.4137H41.3838H41.3539H41.3241H41.2943H41.2645H41.2348H41.2051H41.1755H41.1459H41.1164H41.0869H41.0575H41.0281H40.9987H40.9694H40.9401H40.9109H40.8817H40.8526H40.8235H40.7945H40.7655H40.7366H40.7077H40.6789H40.6501H40.6213H40.5926H40.564H40.5354H40.5069H40.4784H40.4499H40.4216H40.3932H40.3649H40.3367H40.3085H40.2804H40.2523H40.2243H40.1963H40.1684H40.1624C40.6577 19.3273 41.1506 16.6073 41.4615 13.3048ZM8 23.2959H9.12088C10.7777 23.2959 12.1209 24.6391 12.1209 26.2959V58.9553C12.1209 60.6121 10.7777 61.9553 9.12088 61.9553H8C6.34315 61.9553 5 60.6121 5 58.9553V26.2959C5 24.6391 6.34315 23.2959 8 23.2959Z" fill="#24A544" fill-opacity="0.3"/>
</svg>
