<svg width="104" height="66" viewBox="0 0 104 66" fill="none" xmlns="http://www.w3.org/2000/svg">
<path fill-rule="evenodd" clip-rule="evenodd" d="M0.5 3C0.5 1.61929 1.61929 0.5 3 0.5H65.4046C66.7853 0.5 67.9046 1.61929 67.9046 3V8.56897H85.9057C87.0001 8.56897 87.9672 9.28072 88.2927 10.3256L92.7019 24.4828H101C102.381 24.4828 103.5 25.602 103.5 26.9828V55C103.5 56.3807 102.381 57.5 101 57.5H93.7147C92.5827 62.3707 88.2152 66 83 66C77.7848 66 73.4173 62.3707 72.2853 57.5H41.7147C40.5827 62.3707 36.2152 66 31 66C25.7848 66 21.4173 62.3707 20.2853 57.5H3C1.61929 57.5 0.5 56.3807 0.5 55V3ZM72.2853 52.5C73.4173 47.6293 77.7848 44 83 44C88.2152 44 92.5827 47.6293 93.7147 52.5H98.5V29.4828H67.9046V52.5H72.2853ZM62.9046 52.5H41.7147C40.6613 47.9676 36.8063 44.5101 32.0736 44.0517H62.9046V52.5ZM5.5 44.0517H29.9264C25.1937 44.5101 21.3387 47.9676 20.2853 52.5H5.5V44.0517ZM5.5 39.0517H62.9046V5.5H5.5V39.0517ZM67.9046 24.4828H87.465L84.0659 13.569H67.9046V24.4828ZM31 61C34.3137 61 37 58.3137 37 55C37 51.6863 34.3137 49 31 49C27.6863 49 25 51.6863 25 55C25 58.3137 27.6863 61 31 61ZM89 55C89 58.3137 86.3137 61 83 61C79.6863 61 77 58.3137 77 55C77 51.6863 79.6863 49 83 49C86.3137 49 89 51.6863 89 55Z" fill="#24A544" fill-opacity="0.3"/>
</svg>
