<?xml version="1.0" encoding="utf-8"?>
<!-- Generator: Adobe Illustrator 26.0.1, SVG Export Plug-In . SVG Version: 6.00 Build 0)  -->
<svg version="1.1" id="Слой_1" xmlns="http://www.w3.org/2000/svg" xmlns:xlink="http://www.w3.org/1999/xlink" x="0px" y="0px"
	 viewBox="0 0 53 54" style="enable-background:new 0 0 53 54;" xml:space="preserve">
<style type="text/css">
	.st0{clip-path:url(#SVGID_00000017493857137682874050000015495099417360268973_);}
	.st1{fill:#24A544;}
	.st2{fill:#FFFFFF;}
</style>
<g>
	<defs>
		<rect id="SVGID_1_" x="-4.9" y="-5" width="62.8" height="64"/>
	</defs>
	<clipPath id="SVGID_00000041297765783933811310000009808842120219089056_">
		<use xlink:href="#SVGID_1_"  style="overflow:visible;"/>
	</clipPath>
	<g style="clip-path:url(#SVGID_00000041297765783933811310000009808842120219089056_);">
		<path class="st1" d="M11.7,49.8l1,0.5c4.3,2.6,9.1,3.8,13.9,3.8C41.7,54.1,54,41.7,54,26.5c0-7.2-2.9-14.3-8-19.5
			C40.8,1.9,33.9-1,26.6-1C11.5-1-0.8,11.4-0.6,26.7c0,5.2,1.5,10.2,4.1,14.5l0.7,1L1.4,52.4L11.7,49.8z"/>
		<path class="st2" d="M48.8,4.3C43-1.7,35-5,26.8-5C9.3-5-4.7,9.3-4.6,26.7c0,5.5,1.5,10.9,4.1,15.7l-4.5,16.4l16.6-4.3
			c4.6,2.6,9.8,3.8,14.9,3.8c17.3,0,31.3-14.3,31.3-31.7C57.9,18.1,54.7,10.2,48.8,4.3L48.8,4.3z M26.8,52.9
			c-4.6,0-9.2-1.2-13.2-3.6l-1-0.5l-9.9,2.6l2.6-9.8l-0.7-1c-7.5-12.2-3.9-28.5,8.4-36c12.3-7.6,28.2-4,35.8,8.5
			c7.5,12.4,3.9,28.5-8.4,36C36.3,51.5,31.6,52.9,26.8,52.9L26.8,52.9z M41.8,33.8l-1.9-0.9c0,0-2.7-1.2-4.5-2.1
			c-0.2,0-0.3-0.2-0.5-0.2c-0.5,0-0.9,0.2-1.2,0.3c0,0-0.2,0.2-2.6,2.9c-0.2,0.3-0.5,0.5-0.9,0.5h-0.2c-0.2,0-0.5-0.2-0.7-0.3
			l-0.9-0.3c-1.9-0.9-3.6-1.9-5-3.3c-0.3-0.3-0.9-0.7-1.2-1c-1.2-1.2-2.4-2.6-3.3-4.1L19.1,25c-0.2-0.2-0.2-0.3-0.3-0.7
			c0-0.3,0-0.7,0.2-0.9c0,0,0.7-0.9,1.2-1.4c0.3-0.3,0.5-0.9,0.9-1.2c0.3-0.5,0.5-1.2,0.3-1.7c-0.2-0.9-2.2-5.5-2.7-6.6
			c-0.3-0.5-0.7-0.7-1.2-0.9h-1.9c-0.3,0-0.7,0.2-1,0.2l-0.2,0.2c-0.3,0.2-0.7,0.5-1,0.7c-0.3,0.3-0.5,0.7-0.9,1
			c-1.2,1.6-1.9,3.4-1.9,5.3c0,1.4,0.3,2.8,0.9,4l0.2,0.5c1.5,3.3,3.6,6.2,6.3,8.8l0.7,0.7c0.5,0.5,1,0.9,1.4,1.4
			c3.6,3.1,7.7,5.3,12.3,6.6c0.5,0.2,1.2,0.2,1.7,0.3h1.7c0.9,0,1.9-0.3,2.6-0.7c0.5-0.3,0.9-0.3,1.2-0.7l0.3-0.3
			c0.3-0.3,0.7-0.5,1-0.9c0.3-0.3,0.7-0.7,0.9-1c0.3-0.7,0.5-1.6,0.7-2.4v-1.2C42.3,34.1,42.2,34,41.8,33.8z"/>
	</g>
</g>
</svg>
